<?xml version="1.0" encoding="UTF-8" standalone="no"?>
<!-- Created with Inkscape (http://www.inkscape.org/) -->
<svg xmlns:dc="http://purl.org/dc/elements/1.1/" xmlns:cc="http://creativecommons.org/ns#" xmlns:rdf="http://www.w3.org/1999/02/22-rdf-syntax-ns#" xmlns:svg="http://www.w3.org/2000/svg" xmlns="http://www.w3.org/2000/svg" xmlns:sodipodi="http://sodipodi.sourceforge.net/DTD/sodipodi-0.dtd" xmlns:inkscape="http://www.inkscape.org/namespaces/inkscape" id="svg2" sodipodi:version="0.32" inkscape:version="0.46" width="350" height="350" version="1.0" sodipodi:docname="Coat of arms of Kavadarci Municipality.svg" inkscape:output_extension="org.inkscape.output.svg.inkscape">
  <metadata id="metadata7">
    <rdf:RDF>
      <cc:Work rdf:about="">
        <dc:format>image/svg+xml</dc:format>
        <dc:type rdf:resource="http://purl.org/dc/dcmitype/StillImage"/>
      </cc:Work>
    </rdf:RDF>
  </metadata>
  <defs id="defs5">
    <inkscape:perspective sodipodi:type="inkscape:persp3d" inkscape:vp_x="0 : 526.18109 : 1" inkscape:vp_y="0 : 1000 : 0" inkscape:vp_z="744.09448 : 526.18109 : 1" inkscape:persp3d-origin="372.04724 : 350.78739 : 1" id="perspective9"/>
  </defs>
  <sodipodi:namedview inkscape:window-height="738" inkscape:window-width="1280" inkscape:pageshadow="2" inkscape:pageopacity="0.0" guidetolerance="10.0" gridtolerance="10.0" objecttolerance="10.0" borderopacity="1.0" bordercolor="#666666" pagecolor="#ffffff" id="base" showgrid="false" inkscape:zoom="0.91772199" inkscape:cx="273.80491" inkscape:cy="145.0019" inkscape:window-x="0" inkscape:window-y="24" inkscape:current-layer="svg2"/>
  <rect style="fill: rgb(255, 255, 255); fill-opacity: 1; fill-rule: evenodd; stroke: none; stroke-linecap: round; stroke-opacity: 1;" id="rect2384" width="400.29651" height="369.85498" x="-20.703766" y="-3.2723682"/>
  <rect style="fill: rgb(189, 8, 0); fill-opacity: 1; fill-rule: evenodd; stroke: none; stroke-linecap: round; stroke-opacity: 1;" id="rect2386" width="226.595" height="384.28293" x="185.73343" y="-2.741116"/>
  <path sodipodi:type="arc" style="fill: rgb(189, 8, 0); fill-opacity: 1; fill-rule: evenodd; stroke: none; stroke-linecap: round; stroke-opacity: 1;" id="path2388" sodipodi:cx="-363.64648" sodipodi:cy="349.05731" sodipodi:rx="42.875351" sodipodi:ry="42.875351" d="M -320.77113,349.05731 A 42.875351,42.875351 0 1 1 -406.52184,349.05731 A 42.875351,42.875351 0 1 1 -320.77113,349.05731 z" transform="matrix(0.999375, -0.0353581, 0.0353581, 0.999375, 449.427, -256.777)"/>
  <path sodipodi:type="arc" style="fill: none; fill-opacity: 1; fill-rule: evenodd; stroke: none; stroke-linecap: round; stroke-opacity: 1;" id="path2390" sodipodi:cx="-363.64648" sodipodi:cy="349.05731" sodipodi:rx="42.875351" sodipodi:ry="42.875351" d="M -320.77113,349.05731 A 42.875351,42.875351 0 1 1 -406.52184,349.05731 A 42.875351,42.875351 0 1 1 -320.77113,349.05731 z" transform="matrix(0.999375, -0.0353581, 0.0353581, 0.999375, 539.988, -258.897)"/>
  <path sodipodi:type="arc" style="fill: rgb(255, 255, 255); fill-opacity: 1; fill-rule: evenodd; stroke: none; stroke-linecap: round; stroke-opacity: 1;" id="path2392" sodipodi:cx="-363.64648" sodipodi:cy="349.05731" sodipodi:rx="42.875351" sodipodi:ry="42.875351" d="M -320.77113,349.05731 A 42.875351,42.875351 0 1 1 -406.52184,349.05731 A 42.875351,42.875351 0 1 1 -320.77113,349.05731 z" transform="matrix(0.999375, -0.0353581, 0.0353581, 0.999375, 630.496, -257.671)"/>
  <path sodipodi:type="arc" style="fill: rgb(189, 8, 0); fill-opacity: 1; fill-rule: evenodd; stroke: none; stroke-linecap: round; stroke-opacity: 1;" id="path2394" sodipodi:cx="-363.64648" sodipodi:cy="349.05731" sodipodi:rx="42.875351" sodipodi:ry="42.875351" d="M -320.77113,349.05731 A 42.875351,42.875351 0 1 1 -406.52184,349.05731 A 42.875351,42.875351 0 1 1 -320.77113,349.05731 z" transform="matrix(0.999375, -0.0353581, 0.0353581, 0.999375, 490.809, -172.63)"/>
  <path sodipodi:type="arc" style="fill: rgb(255, 255, 255); fill-opacity: 1; fill-rule: evenodd; stroke: none; stroke-linecap: round; stroke-opacity: 1;" id="path2396" sodipodi:cx="-363.64648" sodipodi:cy="349.05731" sodipodi:rx="42.875351" sodipodi:ry="42.875351" d="M -320.77113,349.05731 A 42.875351,42.875351 0 1 1 -406.52184,349.05731 A 42.875351,42.875351 0 1 1 -320.77113,349.05731 z" transform="matrix(0.999375, -0.0353581, 0.0353581, 0.999375, 581.553, -173.192)"/>
  <path style="fill: rgb(255, 255, 255); fill-rule: evenodd; stroke: rgb(255, 255, 255); stroke-width: 0.1; stroke-linecap: butt; stroke-linejoin: miter; stroke-miterlimit: 4; stroke-dasharray: none; stroke-opacity: 1;" d="M 185.78263,60.038202 L 185.79417,145.21327" id="path2400" inkscape:connector-type="polyline" sodipodi:nodetypes="cc"/>
  <path style="fill: rgb(255, 255, 255); fill-opacity: 1; fill-rule: evenodd; stroke: none; stroke-width: 0.1; stroke-linecap: round; stroke-miterlimit: 4; stroke-dasharray: none; stroke-opacity: 1;" d="M 185.68893,102.85427 L 185.74472,60.029014 L 185.74224,60.029464 C 187.02539,59.971016 192.10052,60.084824 194.12978,60.398502 C 214.4436,63.538556 229.13802,81.414748 229.00427,102.82435 C 228.95919,110.0397 227.76556,115.48965 224.87729,121.66764 C 220.83565,130.31268 213.93634,137.41564 205.61823,141.49519 C 200.4185,144.04537 192.22613,144.84171 185.74784,145.20898 L 185.75147,145.22445 L 185.68893,102.85427 z" id="path3176" sodipodi:nodetypes="cccssssccc"/>
  <path style="fill: rgb(189, 8, 0); fill-opacity: 1; fill-rule: evenodd; stroke: none; stroke-width: 0.1; stroke-linecap: round; stroke-miterlimit: 4; stroke-dasharray: none; stroke-opacity: 1;" d="M 180.93117,144.68249 C 174.54891,143.29751 168.58297,140.65613 163.78473,137.091 C 160.51538,134.66187 155.85454,129.90265 153.82159,126.91759 C 150.72719,122.37401 148.27716,116.63689 147.08399,111.14056 C 146.18167,106.98406 146.17455,98.294516 147.07007,94.180767 C 149.88545,81.247697 158.35768,70.19639 169.90679,64.392175 C 174.13075,62.269354 182.64356,60.019894 185.7385,60.019894 L 185.74238,60.0238 L 185.74843,102.62449 L 185.74843,145.20489 L 185.74542,145.20766 C 185.01119,145.19214 182.11219,144.93878 180.93116,144.68249 L 180.93117,144.68249 z" id="path3178" sodipodi:nodetypes="csssssccccccc"/>
  <path sodipodi:type="arc" style="fill: none; fill-opacity: 1; fill-rule: evenodd; stroke: none; stroke-linecap: round; stroke-opacity: 1;" id="path3180" sodipodi:cx="-363.64648" sodipodi:cy="349.05731" sodipodi:rx="42.875351" sodipodi:ry="42.875351" d="M -320.77113,349.05731 A 42.875351,42.875351 0 1 1 -406.52184,349.05731 A 42.875351,42.875351 0 1 1 -320.77113,349.05731 z" transform="matrix(0.999375, -0.0353581, 0.0353581, 0.999375, 540.059, -89.5815)"/>
  <path style="fill: rgb(255, 255, 255); fill-rule: evenodd; stroke: rgb(255, 255, 255); stroke-width: 0.1; stroke-linecap: butt; stroke-linejoin: miter; stroke-miterlimit: 4; stroke-dasharray: none; stroke-opacity: 1;" d="M 185.8536,229.35369 L 185.86514,314.52876" id="path3182" inkscape:connector-type="polyline" sodipodi:nodetypes="cc"/>
  <path style="fill: rgb(255, 255, 255); fill-opacity: 1; fill-rule: evenodd; stroke: none; stroke-width: 0.1; stroke-linecap: round; stroke-miterlimit: 4; stroke-dasharray: none; stroke-opacity: 1;" d="M 185.7599,272.16976 L 185.81569,229.3445 L 185.81321,229.34495 C 187.09636,229.28651 192.17149,229.40031 194.20075,229.71399 C 214.51457,232.85405 229.20899,250.73024 229.07524,272.13984 C 229.03016,279.35519 227.83653,284.80514 224.94826,290.98313 C 220.90662,299.62817 214.00731,306.73113 205.6892,310.81068 C 200.48947,313.36086 192.2971,314.1572 185.81881,314.52447 L 185.82244,314.53994 L 185.7599,272.16976 z" id="path3184" sodipodi:nodetypes="cccssssccc"/>
  <path style="fill: rgb(189, 8, 0); fill-opacity: 1; fill-rule: evenodd; stroke: none; stroke-width: 0.1; stroke-linecap: round; stroke-miterlimit: 4; stroke-dasharray: none; stroke-opacity: 1;" d="M 181.00214,313.99798 C 174.61988,312.613 168.65394,309.97162 163.8557,306.40649 C 160.58635,303.97736 155.92551,299.21814 153.89256,296.23308 C 150.79816,291.6895 148.34813,285.95238 147.15496,280.45605 C 146.25264,276.29955 146.24552,267.61001 147.14104,263.49626 C 149.95642,250.56319 158.42865,239.51188 169.97776,233.70766 C 174.20172,231.58484 182.71453,229.33538 185.80947,229.33538 L 185.81335,229.33929 L 185.8194,271.93998 L 185.8194,314.52038 L 185.81639,314.52315 C 185.08216,314.50763 182.18316,314.25427 181.00213,313.99798 L 181.00214,313.99798 z" id="path3186" sodipodi:nodetypes="csssssccccccc"/>
</svg>