<?xml version="1.0" encoding="UTF-8" standalone="no"?>
<!-- Created with Inkscape (http://www.inkscape.org/) -->
<svg xmlns:dc="http://purl.org/dc/elements/1.1/" xmlns:cc="http://creativecommons.org/ns#" xmlns:rdf="http://www.w3.org/1999/02/22-rdf-syntax-ns#" xmlns:svg="http://www.w3.org/2000/svg" xmlns="http://www.w3.org/2000/svg" xmlns:sodipodi="http://sodipodi.sourceforge.net/DTD/sodipodi-0.dtd" xmlns:inkscape="http://www.inkscape.org/namespaces/inkscape" id="svg2" sodipodi:version="0.32" inkscape:version="0.46" width="700" height="400" version="1.0" sodipodi:docname="Flag of Čaška Municipality.svg" inkscape:output_extension="org.inkscape.output.svg.inkscape">
  <metadata id="metadata7">
    <rdf:RDF>
      <cc:Work rdf:about="">
        <dc:format>image/svg+xml</dc:format>
        <dc:type rdf:resource="http://purl.org/dc/dcmitype/StillImage"/>
      </cc:Work>
    </rdf:RDF>
  </metadata>
  <defs id="defs5">
    <inkscape:perspective sodipodi:type="inkscape:persp3d" inkscape:vp_x="0 : 526.18109 : 1" inkscape:vp_y="0 : 1000 : 0" inkscape:vp_z="744.09448 : 526.18109 : 1" inkscape:persp3d-origin="372.04724 : 350.78739 : 1" id="perspective9"/>
    <inkscape:perspective id="perspective3253" inkscape:persp3d-origin="400 : 133.33333 : 1" inkscape:vp_z="800 : 200 : 1" inkscape:vp_y="0 : 1000 : 0" inkscape:vp_x="0 : 200 : 1" sodipodi:type="inkscape:persp3d"/>
  </defs>
  <sodipodi:namedview inkscape:window-height="738" inkscape:window-width="1280" inkscape:pageshadow="2" inkscape:pageopacity="0.0" guidetolerance="10.0" gridtolerance="10.0" objecttolerance="10.0" borderopacity="1.0" bordercolor="#666666" pagecolor="#ffffff" id="base" showgrid="false" inkscape:zoom="0.37088107" inkscape:cx="701.04919" inkscape:cy="398.46433" inkscape:window-x="0" inkscape:window-y="24" inkscape:current-layer="svg2"/>
  <g id="g3267">
    <path id="path3293" d="" style="fill: rgb(255, 230, 0); fill-opacity: 1; fill-rule: evenodd; stroke: rgb(255, 230, 0); stroke-width: 1; stroke-linecap: round; stroke-opacity: 1;"/>
    <rect y="0.072258621" x="0.03560169" height="400.05194" width="700.04474" id="rect2438" style="fill: rgb(255, 255, 255); fill-opacity: 1; fill-rule: evenodd; stroke: none; stroke-linecap: round; stroke-opacity: 1;"/>
    <path sodipodi:nodetypes="cc" inkscape:connector-type="polyline" id="path3163" d="M -4.2100403,1.0823272 L 699.29188,1.0823272" style="fill: none; fill-rule: evenodd; stroke: rgb(255, 0, 0); stroke-width: 1px; stroke-linecap: butt; stroke-linejoin: miter; stroke-opacity: 1;"/>
    <path sodipodi:nodetypes="cccssc" id="path3165" d="M -1.5447024,200.23851 L -1.5447024,0.016676411 L 348.5351,0.016676411 C 541.11885,0.016676411 700.57399,-0.27809076 700.0798,0.16507635 C 698.94681,1.1810199 -0.42725568,400.46035 -1.070733,400.46035 C -1.3314298,400.46035 -1.5447024,310.36052 -1.5447024,200.23851 z" style="fill: rgb(255, 0, 0); fill-opacity: 1; fill-rule: evenodd; stroke: rgb(255, 0, 0); stroke-width: 1; stroke-linecap: round; stroke-opacity: 1;"/>
    <g transform="matrix(1.65405, 0, 0, 1, -979.902, -581.322)" id="g3303">
      <g id="g3284" style="fill: rgb(255, 230, 0); fill-opacity: 1;">
        <path sodipodi:nodetypes="cc" inkscape:connector-type="polyline" id="path3272" d="M 633.06985,655.038 L 1034.2759,614.1448" style="fill: rgb(255, 230, 0); fill-opacity: 1; fill-rule: evenodd; stroke: rgb(255, 230, 0); stroke-width: 0.777544px; stroke-linecap: butt; stroke-linejoin: miter; stroke-opacity: 1;"/>
        <path sodipodi:nodetypes="cc" inkscape:connector-type="polyline" id="path3276" d="M 633.06985,655.038 L 1034.468,694.48464" style="fill: rgb(255, 230, 0); fill-opacity: 1; fill-rule: evenodd; stroke: rgb(255, 230, 0); stroke-width: 0.777544px; stroke-linecap: butt; stroke-linejoin: miter; stroke-opacity: 1;"/>
        <path sodipodi:nodetypes="cc" inkscape:connector-type="polyline" id="path3280" d="M 1033.4128,614.05559 L 1033.5153,694.86148" style="fill: rgb(255, 230, 0); fill-opacity: 1; fill-rule: evenodd; stroke: rgb(255, 230, 0); stroke-width: 0.777544px; stroke-linecap: butt; stroke-linejoin: miter; stroke-opacity: 1;"/>
      </g>
      <path style="fill: rgb(255, 230, 0); fill-opacity: 1; fill-rule: evenodd; stroke: rgb(255, 230, 0); stroke-width: 0.777544; stroke-linecap: round; stroke-opacity: 1;" d="M 837.77817,674.26222 C 732.17417,663.81637 646.2807,655.11189 646.90381,654.91895 C 647.52692,654.72602 731.3274,646.10838 833.12707,635.76866 C 934.92674,625.42893 1021.3082,616.57122 1025.086,616.08486 L 1031.9546,615.20058 L 1031.9546,654.37876 C 1031.9546,675.92676 1031.4665,693.48895 1030.87,693.40584 C 1030.2736,693.32272 943.38223,684.70811 837.7782,674.26223 L 837.77817,674.26222 z" id="path3289"/>
      <path style="fill: rgb(255, 230, 0); fill-opacity: 1; fill-rule: evenodd; stroke: rgb(255, 230, 0); stroke-width: 0.777544; stroke-linecap: round; stroke-opacity: 1;" d="M 647.51482,655.90697 C 643.20585,655.47128 639.64009,655.07457 639.59091,655.02539 C 639.5046,654.93909 645.53394,654.30082 646.39217,654.3054 C 646.73497,654.30723 646.81423,654.41267 646.81423,654.86683 C 646.81423,655.56549 646.51259,655.49586 652.44175,656.16583 C 655.07262,656.46311 656.80308,656.70471 656.28722,656.70273 C 655.77137,656.70075 651.82378,656.34266 647.51482,655.90697 L 647.51482,655.90697 z" id="path3291"/>
      <path style="fill: rgb(255, 230, 0); fill-opacity: 1; fill-rule: evenodd; stroke: rgb(255, 230, 0); stroke-width: 0.777544; stroke-linecap: round; stroke-opacity: 1;" d="M 714.62585,663.4896 C 669.84955,659.07114 633.19329,655.45089 633.16749,655.4446 C 633.1417,655.43831 633.1206,655.22213 633.1206,654.9642 C 633.1206,654.57185 633.20941,654.49524 633.66425,654.49524 C 634.21716,654.49524 795.64047,638.08517 796.92834,637.89804 C 797.57226,637.80448 797.63178,637.83348 797.63178,638.24088 C 797.63178,638.63278 797.52537,638.69782 796.74076,638.78554 C 796.2507,638.84032 762.40116,642.29163 721.51957,646.4551 C 664.58423,652.25353 647.1894,654.08207 647.1894,654.26865 C 647.1894,654.43949 647.37149,654.48156 647.79905,654.40952 C 649.39905,654.13994 682.66492,650.69723 747.48769,644.09265 C 774.29316,641.36153 796.54145,639.08071 796.92834,639.02416 L 797.63178,638.92133 L 797.63178,654.7744 C 797.63178,669.73921 797.61338,670.62868 797.30351,670.64923 C 796.99086,670.66995 796.99086,670.67507 797.30351,670.75677 C 797.48406,670.80395 797.63178,671.00519 797.63178,671.20397 C 797.63178,671.50742 797.50393,671.562 796.83455,671.54428 C 796.39607,671.53267 759.40216,667.90807 714.62585,663.4896 L 714.62585,663.4896 z M 795.80284,670.50323 C 795.67387,670.45119 795.46284,670.45119 795.33388,670.50323 C 795.20491,670.55527 795.31043,670.59785 795.56836,670.59785 C 795.82629,670.59785 795.9318,670.55527 795.80284,670.50323 L 795.80284,670.50323 z M 794.01723,670.30989 C 793.83471,670.26233 793.58147,670.26545 793.45447,670.31684 C 793.32746,670.36822 793.4768,670.40714 793.78631,670.40331 C 794.09582,670.39949 794.19973,670.35745 794.01723,670.30989 z M 792.14139,670.1223 C 791.95887,670.07474 791.70563,670.07787 791.57863,670.12925 C 791.45162,670.18064 791.60096,670.21955 791.91047,670.21573 C 792.21998,670.21191 792.32389,670.16986 792.14139,670.1223 z M 790.26555,669.93472 C 790.08303,669.88716 789.82979,669.89029 789.70279,669.94167 C 789.57578,669.99305 789.72512,670.03197 790.03463,670.02814 C 790.34414,670.02432 790.44805,669.98228 790.26555,669.93472 z M 788.39327,669.74782 C 788.21272,669.70064 787.91728,669.70064 787.73673,669.74782 C 787.55618,669.79501 787.7039,669.83361 788.065,669.83361 C 788.4261,669.83361 788.57382,669.79501 788.39327,669.74782 z M 786.51743,669.56024 C 786.33688,669.51306 786.04144,669.51306 785.86089,669.56024 C 785.68034,669.60742 785.82806,669.64603 786.18916,669.64603 C 786.55026,669.64602 786.69798,669.60742 786.51743,669.56024 z M 784.64159,669.37265 C 784.46104,669.32547 784.1656,669.32547 783.98505,669.37265 C 783.8045,669.41984 783.95222,669.45844 784.31332,669.45844 C 784.67442,669.45844 784.82214,669.41984 784.64159,669.37265 z M 782.76575,669.18507 C 782.5852,669.13789 782.28976,669.13789 782.10921,669.18507 C 781.92866,669.23225 782.07638,669.27086 782.43748,669.27086 C 782.79858,669.27086 782.9463,669.23225 782.76575,669.18507 z M 780.79392,668.99413 C 780.56059,668.94925 780.22294,668.95096 780.04359,668.99791 C 779.86426,669.04486 780.05516,669.08157 780.46785,669.07949 C 780.88053,669.0774 781.02728,669.03899 780.79392,668.99412 L 780.79392,668.99413 z M 778.91808,668.80654 C 778.68475,668.76167 778.3471,668.76337 778.16775,668.81032 C 777.98842,668.85727 778.17932,668.89399 778.59201,668.8919 C 779.00469,668.88982 779.15144,668.85141 778.91808,668.80654 L 778.91808,668.80654 z M 777.04224,668.61896 C 776.80891,668.57409 776.47126,668.57579 776.29191,668.62274 C 776.11258,668.66969 776.30348,668.7064 776.71616,668.70432 C 777.12885,668.70224 777.2756,668.66382 777.04224,668.61895 L 777.04224,668.61896 z M 775.1664,668.43137 C 774.93307,668.3865 774.59542,668.38821 774.41607,668.43516 C 774.23674,668.4821 774.42764,668.51882 774.84032,668.51674 C 775.25301,668.51465 775.39976,668.47624 775.1664,668.43137 L 775.1664,668.43137 z M 773.29056,668.24379 C 773.05723,668.19892 772.71957,668.20062 772.54023,668.24757 C 772.3609,668.29452 772.5518,668.33123 772.96448,668.32915 C 773.37717,668.32707 773.52392,668.28865 773.29056,668.24379 L 773.29056,668.24379 z M 771.41692,668.05649 C 771.18478,668.01178 770.80492,668.01178 770.57279,668.05649 C 770.34065,668.1012 770.53058,668.13778 770.99485,668.13778 C 771.45912,668.13778 771.64905,668.1012 771.41692,668.05649 L 771.41692,668.05649 z M 769.54108,667.86891 C 769.30894,667.82419 768.92908,667.82419 768.69695,667.86891 C 768.46481,667.91361 768.65474,667.9502 769.11901,667.9502 C 769.58328,667.9502 769.77321,667.91362 769.54108,667.86891 L 769.54108,667.86891 z M 767.66524,667.68132 C 767.4331,667.63661 767.05324,667.63661 766.82111,667.68132 C 766.58897,667.72603 766.7789,667.76261 767.24317,667.76261 C 767.70744,667.76262 767.89737,667.72603 767.66524,667.68132 L 767.66524,667.68132 z M 765.7894,667.49374 C 765.55726,667.44903 765.1774,667.44903 764.94527,667.49374 C 764.71313,667.53845 764.90306,667.57503 765.36733,667.57503 C 765.8316,667.57503 766.02153,667.53845 765.7894,667.49374 L 765.7894,667.49374 z M 763.91356,667.30616 C 763.68142,667.26144 763.30156,667.26144 763.06943,667.30615 C 762.83729,667.35086 763.02722,667.38745 763.49149,667.38745 C 763.95576,667.38745 764.14569,667.35086 763.91356,667.30615 L 763.91356,667.30616 z M 762.04029,667.11891 C 761.80958,667.07438 761.38751,667.07323 761.10237,667.11635 C 760.81724,667.15946 761.006,667.19589 761.52186,667.1973 C 762.03772,667.19871 762.27101,667.16343 762.04029,667.11891 L 762.04029,667.11891 z M 760.16445,666.93133 C 759.93374,666.8868 759.51167,666.88564 759.22652,666.92876 C 758.9414,666.97188 759.13016,667.00831 759.64602,667.00972 C 760.16188,667.01113 760.39517,666.97585 760.16445,666.93132 L 760.16445,666.93133 z M 758.2886,666.74374 C 758.0579,666.69921 757.63583,666.69806 757.35068,666.74118 C 757.06556,666.7843 757.25432,666.82073 757.77018,666.82213 C 758.28603,666.82354 758.51933,666.78826 758.2886,666.74374 L 758.2886,666.74374 z M 756.41276,666.55616 C 756.18206,666.51163 755.75999,666.51048 755.47484,666.55359 C 755.18972,666.59671 755.37848,666.63314 755.89434,666.63455 C 756.41019,666.63596 756.64349,666.60068 756.41276,666.55616 L 756.41276,666.55616 z M 754.53692,666.36857 C 754.30621,666.32405 753.88415,666.32289 753.599,666.36601 C 753.31388,666.40913 753.50264,666.44556 754.0185,666.44697 C 754.53435,666.44837 754.76765,666.4131 754.53692,666.36857 L 754.53692,666.36857 z M 729.16362,663.8602 C 716.00929,662.53452 694.44181,660.34612 681.2359,658.9971 C 668.02998,657.64807 657.02297,656.52644 656.77586,656.50459 C 656.52875,656.48275 656.2932,656.55953 656.25241,656.67523 C 656.20271,656.8162 656.96959,656.96219 658.57754,657.11784 C 659.89715,657.24557 681.27811,659.35628 706.09078,661.8083 C 730.90346,664.26033 751.6268,666.26743 752.14266,666.26853 C 752.65851,666.26963 742.31795,665.18588 729.16362,663.8602 z M 639.68604,655.05799 C 639.68604,654.95482 639.28508,654.87634 638.79501,654.88359 C 638.1246,654.89351 637.99688,654.93669 638.27916,655.05799 C 638.80353,655.28332 639.68604,655.28332 639.68604,655.05799 z" id="path3295"/>
      <path style="fill: rgb(255, 230, 0); fill-opacity: 1; fill-rule: evenodd; stroke: rgb(255, 230, 0); stroke-width: 0.777544; stroke-linecap: round; stroke-opacity: 1;" d="M 884.45726,680.17313 C 821.50996,673.95266 798.92712,671.78219 797.88724,671.85276 C 796.85984,671.92248 783.83548,670.70755 749.60152,667.34859 C 723.81816,664.81878 702.65165,662.74894 702.56483,662.74894 C 702.47801,662.74894 702.40697,659.22261 702.40697,654.91265 L 702.40697,647.07636 L 749.97633,642.24171 C 783.54409,638.8301 797.6151,637.46466 797.78149,637.60275 C 797.94793,637.74089 823.18088,635.23341 883.57973,629.0767 C 930.63908,624.27973 969.3553,620.35495 969.61577,620.35495 C 969.95932,620.35495 970.08937,620.45481 970.08937,620.71862 C 970.08937,621.00449 969.9188,621.10539 969.29214,621.19022 C 968.85366,621.24958 936.12259,624.5918 896.55643,628.61737 C 856.99027,632.64294 824.2381,636.00882 823.77383,636.09711 C 823.30956,636.1854 823.11643,636.26707 823.34464,636.27861 C 823.67717,636.29543 967.72889,621.66237 969.57351,621.42439 L 970.08937,621.35785 L 970.08937,654.99669 C 970.08937,681.79512 970.04168,688.6308 969.85489,688.61225 C 969.72592,688.59944 931.29699,684.80184 884.45726,680.17313 z M 805.23819,671.43725 C 805.10278,671.38306 804.94098,671.38972 804.87865,671.45205 C 804.81632,671.51438 804.92711,671.55872 805.12485,671.55058 C 805.34338,671.54158 805.38783,671.49713 805.23819,671.43725 z M 803.36235,671.24966 C 803.22694,671.19547 803.06514,671.20214 803.00281,671.26447 C 802.94048,671.3268 803.05127,671.37114 803.24901,671.36299 C 803.46754,671.35399 803.51199,671.30954 803.36235,671.24966 z M 801.48651,671.06208 C 801.3511,671.00789 801.1893,671.01455 801.12697,671.07689 C 801.06464,671.13922 801.17543,671.18355 801.37317,671.17541 C 801.5917,671.16641 801.63615,671.12196 801.48651,671.06208 z M 799.62239,670.8784 C 799.49343,670.82636 799.28239,670.82636 799.15343,670.8784 C 799.02447,670.93044 799.12998,670.97302 799.38791,670.97302 C 799.64584,670.97302 799.75135,670.93044 799.62239,670.8784 L 799.62239,670.8784 z M 810.80871,637.61374 C 820.32467,636.64563 823.05696,636.3119 821.60099,636.29555 C 820.46672,636.28282 798.32407,638.63371 798.16861,638.78337 C 798.04801,638.89948 798.31595,638.92183 798.91895,638.84595 C 799.43481,638.78104 804.7852,638.22655 810.80872,637.61374 L 810.80871,637.61374 z" id="path3297"/>
      <path style="fill: rgb(255, 230, 0); fill-opacity: 1; fill-rule: evenodd; stroke: rgb(255, 230, 0); stroke-width: 0.777544; stroke-linecap: round; stroke-opacity: 1;" d="M 1001.5669,691.70725 C 977.96496,689.36827 970.40939,688.67713 970.30409,688.84751 C 970.19883,689.01784 961.09799,688.17579 932.6785,685.36625 C 876.81277,679.84337 851.72155,677.38301 851.25021,677.38168 L 850.82815,677.38049 L 850.82815,654.69931 L 850.82815,632.01813 L 851.53159,631.90919 C 851.91848,631.84926 858.98805,631.12091 867.24175,630.29061 C 875.49544,629.46031 901.79003,626.7958 925.67417,624.36946 C 953.27392,621.56567 969.44974,619.99564 970.05991,620.06138 C 970.66644,620.12673 982.53334,618.99104 1002.2872,616.97716 C 1019.4842,615.22395 1033.6793,613.78951 1033.832,613.78951 C 1034.1779,613.78951 1034.4346,614.39628 1034.1315,614.49733 C 1033.9624,614.55371 1033.9101,623.94769 1033.9101,654.32329 C 1033.9101,690.35689 1033.9378,694.07547 1034.2053,694.07547 C 1034.3851,694.07547 1034.476,694.20378 1034.4381,694.40374 C 1034.3908,694.6527 1034.1722,694.73922 1033.5333,694.76185 C 1033.0699,694.77825 1018.6851,693.40369 1001.5669,691.70725 L 1001.5669,691.70725 z M 1032.7377,693.75858 C 1032.5572,693.7114 1032.2618,693.7114 1032.0812,693.75858 C 1031.9007,693.80576 1032.0484,693.84436 1032.4095,693.84436 C 1032.7706,693.84436 1032.9183,693.80576 1032.7377,693.75858 z M 1031.6009,692.24652 C 1031.5537,692.06597 1031.5151,692.2137 1031.5151,692.5748 C 1031.5151,692.9359 1031.5537,693.08362 1031.6009,692.90307 C 1031.648,692.72252 1031.648,692.42707 1031.6009,692.24652 z M 1031.7948,689.90172 C 1031.7532,689.56642 1031.7192,689.84076 1031.7192,690.51137 C 1031.7192,691.18198 1031.7532,691.45633 1031.7948,691.12102 C 1031.8365,690.78571 1031.8364,690.23703 1031.7948,689.90172 L 1031.7948,689.90172 z M 1031.9843,685.6748 C 1031.9458,685.18819 1031.9147,685.63419 1031.9152,686.6659 C 1031.9157,687.69761 1031.9472,688.09574 1031.9852,687.55064 C 1032.0233,687.00553 1032.0229,686.1614 1031.9843,685.6748 L 1031.9843,685.6748 z M 1032.1739,679.87455 C 1032.1386,679.07026 1032.1096,679.67839 1032.1093,681.22596 C 1032.1091,682.77353 1032.1379,683.43159 1032.1734,682.68831 C 1032.2089,681.94503 1032.2091,680.67884 1032.1739,679.87455 L 1032.1739,679.87455 z M 1032.3621,668.61094 C 1032.3303,667.19233 1032.3042,668.35301 1032.3042,671.19022 C 1032.3042,674.02743 1032.3303,675.1881 1032.3621,673.7695 C 1032.394,672.35089 1032.394,670.02954 1032.3621,668.61094 L 1032.3621,668.61094 z M 1032.7864,630.20311 L 1032.8807,645.585 L 1032.9264,630.15621 C 1032.9668,616.54644 1032.9391,614.72743 1032.6909,614.72743 C 1032.4421,614.72743 1032.4148,617.2968 1032.4552,636.90924 L 1032.501,659.09105 L 1032.5965,636.95613 L 1032.6921,614.82122 L 1032.7864,630.20311 z M 989.06844,619.38753 C 998.40042,618.42452 1005.8915,617.60883 1005.7152,617.57488 C 1005.2371,617.48281 971.62991,620.90155 970.97571,621.1088 C 970.24334,621.34082 968.92249,621.46648 989.06844,619.38753 z M 1009.5242,617.26836 C 1010.6075,617.13769 1011.1562,617.02694 1010.7435,617.02224 C 1010.3308,617.01755 1009.1069,617.12061 1008.0236,617.25127 C 1006.9403,617.38193 1006.3916,617.49268 1006.8043,617.49738 C 1007.2169,617.50208 1008.4409,617.39902 1009.5242,617.26835 L 1009.5242,617.26836 z M 1012.9502,616.84639 C 1012.7195,616.80186 1012.2974,616.80071 1012.0123,616.84383 C 1011.7272,616.88695 1011.9159,616.92338 1012.4318,616.92478 C 1012.9476,616.92619 1013.1809,616.89091 1012.9502,616.84639 L 1012.9502,616.84639 z M 1014.6359,616.65847 C 1014.4038,616.61376 1014.0239,616.61376 1013.7918,616.65847 C 1013.5596,616.70318 1013.7496,616.73976 1014.2138,616.73976 C 1014.6781,616.73976 1014.868,616.70318 1014.6359,616.65847 z M 1016.5117,616.47088 C 1016.2796,616.42617 1015.8997,616.42617 1015.6676,616.47088 C 1015.4355,616.51559 1015.6254,616.55218 1016.0897,616.55218 C 1016.5539,616.55218 1016.7439,616.51559 1016.5117,616.47088 z M 1018.3901,616.28364 C 1018.1594,616.23911 1017.7374,616.23796 1017.4522,616.28108 C 1017.1671,616.32419 1017.3559,616.36062 1017.8717,616.36203 C 1018.3876,616.36344 1018.6209,616.32816 1018.3902,616.28364 L 1018.3901,616.28364 z M 1020.0758,616.09572 C 1019.8437,616.051 1019.4638,616.051 1019.2317,616.09572 C 1018.9996,616.14043 1019.1895,616.17701 1019.6538,616.17701 C 1020.118,616.17701 1020.308,616.14043 1020.0758,616.09572 z M 1021.9517,615.90813 C 1021.7195,615.86342 1021.3397,615.86342 1021.1075,615.90813 C 1020.8754,615.95284 1021.0653,615.98943 1021.5296,615.98943 C 1021.9939,615.98942 1022.1838,615.95284 1021.9517,615.90813 z M 1023.8275,615.72055 C 1023.5954,615.67584 1023.2155,615.67584 1022.9834,615.72055 C 1022.7512,615.76526 1022.9412,615.80184 1023.4054,615.80184 C 1023.8697,615.80184 1024.0596,615.76526 1023.8275,615.72055 z M 1025.422,615.53604 C 1025.2414,615.48886 1024.946,615.48886 1024.7654,615.53604 C 1024.5849,615.58322 1024.7326,615.62183 1025.0937,615.62183 C 1025.4548,615.62183 1025.6025,615.58322 1025.422,615.53604 z M 1026.8171,615.34962 C 1026.6817,615.29544 1026.5199,615.3021 1026.4576,615.36443 C 1026.3953,615.42677 1026.5061,615.4711 1026.7038,615.46295 C 1026.9223,615.45395 1026.9668,615.4095 1026.8171,615.34962 z" id="path3299"/>
    </g>
    <g transform="matrix(1.62125, 0.327792, -0.198175, 0.980167, -817.008, -747.786)" id="g3314">
      <g id="g3316" style="fill: rgb(255, 230, 0); fill-opacity: 1;">
        <path sodipodi:nodetypes="cc" inkscape:connector-type="polyline" id="path3318" d="M 633.06985,655.038 L 1034.2759,614.1448" style="fill: rgb(255, 230, 0); fill-opacity: 1; fill-rule: evenodd; stroke: rgb(255, 230, 0); stroke-width: 0.777544px; stroke-linecap: butt; stroke-linejoin: miter; stroke-opacity: 1;"/>
        <path sodipodi:nodetypes="cc" inkscape:connector-type="polyline" id="path3320" d="M 633.06985,655.038 L 1034.468,694.48464" style="fill: rgb(255, 230, 0); fill-opacity: 1; fill-rule: evenodd; stroke: rgb(255, 230, 0); stroke-width: 0.777544px; stroke-linecap: butt; stroke-linejoin: miter; stroke-opacity: 1;"/>
        <path sodipodi:nodetypes="cc" inkscape:connector-type="polyline" id="path3322" d="M 1033.4128,614.05559 L 1033.5153,694.86148" style="fill: rgb(255, 230, 0); fill-opacity: 1; fill-rule: evenodd; stroke: rgb(255, 230, 0); stroke-width: 0.777544px; stroke-linecap: butt; stroke-linejoin: miter; stroke-opacity: 1;"/>
      </g>
      <path style="fill: rgb(255, 230, 0); fill-opacity: 1; fill-rule: evenodd; stroke: rgb(255, 230, 0); stroke-width: 0.777544; stroke-linecap: round; stroke-opacity: 1;" d="M 837.77817,674.26222 C 732.17417,663.81637 646.2807,655.11189 646.90381,654.91895 C 647.52692,654.72602 731.3274,646.10838 833.12707,635.76866 C 934.92674,625.42893 1021.3082,616.57122 1025.086,616.08486 L 1031.9546,615.20058 L 1031.9546,654.37876 C 1031.9546,675.92676 1031.4665,693.48895 1030.87,693.40584 C 1030.2736,693.32272 943.38223,684.70811 837.7782,674.26223 L 837.77817,674.26222 z" id="path3324"/>
      <path style="fill: rgb(255, 230, 0); fill-opacity: 1; fill-rule: evenodd; stroke: rgb(255, 230, 0); stroke-width: 0.777544; stroke-linecap: round; stroke-opacity: 1;" d="M 647.51482,655.90697 C 643.20585,655.47128 639.64009,655.07457 639.59091,655.02539 C 639.5046,654.93909 645.53394,654.30082 646.39217,654.3054 C 646.73497,654.30723 646.81423,654.41267 646.81423,654.86683 C 646.81423,655.56549 646.51259,655.49586 652.44175,656.16583 C 655.07262,656.46311 656.80308,656.70471 656.28722,656.70273 C 655.77137,656.70075 651.82378,656.34266 647.51482,655.90697 L 647.51482,655.90697 z" id="path3326"/>
      <path style="fill: rgb(255, 230, 0); fill-opacity: 1; fill-rule: evenodd; stroke: rgb(255, 230, 0); stroke-width: 0.777544; stroke-linecap: round; stroke-opacity: 1;" d="M 714.62585,663.4896 C 669.84955,659.07114 633.19329,655.45089 633.16749,655.4446 C 633.1417,655.43831 633.1206,655.22213 633.1206,654.9642 C 633.1206,654.57185 633.20941,654.49524 633.66425,654.49524 C 634.21716,654.49524 795.64047,638.08517 796.92834,637.89804 C 797.57226,637.80448 797.63178,637.83348 797.63178,638.24088 C 797.63178,638.63278 797.52537,638.69782 796.74076,638.78554 C 796.2507,638.84032 762.40116,642.29163 721.51957,646.4551 C 664.58423,652.25353 647.1894,654.08207 647.1894,654.26865 C 647.1894,654.43949 647.37149,654.48156 647.79905,654.40952 C 649.39905,654.13994 682.66492,650.69723 747.48769,644.09265 C 774.29316,641.36153 796.54145,639.08071 796.92834,639.02416 L 797.63178,638.92133 L 797.63178,654.7744 C 797.63178,669.73921 797.61338,670.62868 797.30351,670.64923 C 796.99086,670.66995 796.99086,670.67507 797.30351,670.75677 C 797.48406,670.80395 797.63178,671.00519 797.63178,671.20397 C 797.63178,671.50742 797.50393,671.562 796.83455,671.54428 C 796.39607,671.53267 759.40216,667.90807 714.62585,663.4896 L 714.62585,663.4896 z M 795.80284,670.50323 C 795.67387,670.45119 795.46284,670.45119 795.33388,670.50323 C 795.20491,670.55527 795.31043,670.59785 795.56836,670.59785 C 795.82629,670.59785 795.9318,670.55527 795.80284,670.50323 L 795.80284,670.50323 z M 794.01723,670.30989 C 793.83471,670.26233 793.58147,670.26545 793.45447,670.31684 C 793.32746,670.36822 793.4768,670.40714 793.78631,670.40331 C 794.09582,670.39949 794.19973,670.35745 794.01723,670.30989 z M 792.14139,670.1223 C 791.95887,670.07474 791.70563,670.07787 791.57863,670.12925 C 791.45162,670.18064 791.60096,670.21955 791.91047,670.21573 C 792.21998,670.21191 792.32389,670.16986 792.14139,670.1223 z M 790.26555,669.93472 C 790.08303,669.88716 789.82979,669.89029 789.70279,669.94167 C 789.57578,669.99305 789.72512,670.03197 790.03463,670.02814 C 790.34414,670.02432 790.44805,669.98228 790.26555,669.93472 z M 788.39327,669.74782 C 788.21272,669.70064 787.91728,669.70064 787.73673,669.74782 C 787.55618,669.79501 787.7039,669.83361 788.065,669.83361 C 788.4261,669.83361 788.57382,669.79501 788.39327,669.74782 z M 786.51743,669.56024 C 786.33688,669.51306 786.04144,669.51306 785.86089,669.56024 C 785.68034,669.60742 785.82806,669.64603 786.18916,669.64603 C 786.55026,669.64602 786.69798,669.60742 786.51743,669.56024 z M 784.64159,669.37265 C 784.46104,669.32547 784.1656,669.32547 783.98505,669.37265 C 783.8045,669.41984 783.95222,669.45844 784.31332,669.45844 C 784.67442,669.45844 784.82214,669.41984 784.64159,669.37265 z M 782.76575,669.18507 C 782.5852,669.13789 782.28976,669.13789 782.10921,669.18507 C 781.92866,669.23225 782.07638,669.27086 782.43748,669.27086 C 782.79858,669.27086 782.9463,669.23225 782.76575,669.18507 z M 780.79392,668.99413 C 780.56059,668.94925 780.22294,668.95096 780.04359,668.99791 C 779.86426,669.04486 780.05516,669.08157 780.46785,669.07949 C 780.88053,669.0774 781.02728,669.03899 780.79392,668.99412 L 780.79392,668.99413 z M 778.91808,668.80654 C 778.68475,668.76167 778.3471,668.76337 778.16775,668.81032 C 777.98842,668.85727 778.17932,668.89399 778.59201,668.8919 C 779.00469,668.88982 779.15144,668.85141 778.91808,668.80654 L 778.91808,668.80654 z M 777.04224,668.61896 C 776.80891,668.57409 776.47126,668.57579 776.29191,668.62274 C 776.11258,668.66969 776.30348,668.7064 776.71616,668.70432 C 777.12885,668.70224 777.2756,668.66382 777.04224,668.61895 L 777.04224,668.61896 z M 775.1664,668.43137 C 774.93307,668.3865 774.59542,668.38821 774.41607,668.43516 C 774.23674,668.4821 774.42764,668.51882 774.84032,668.51674 C 775.25301,668.51465 775.39976,668.47624 775.1664,668.43137 L 775.1664,668.43137 z M 773.29056,668.24379 C 773.05723,668.19892 772.71957,668.20062 772.54023,668.24757 C 772.3609,668.29452 772.5518,668.33123 772.96448,668.32915 C 773.37717,668.32707 773.52392,668.28865 773.29056,668.24379 L 773.29056,668.24379 z M 771.41692,668.05649 C 771.18478,668.01178 770.80492,668.01178 770.57279,668.05649 C 770.34065,668.1012 770.53058,668.13778 770.99485,668.13778 C 771.45912,668.13778 771.64905,668.1012 771.41692,668.05649 L 771.41692,668.05649 z M 769.54108,667.86891 C 769.30894,667.82419 768.92908,667.82419 768.69695,667.86891 C 768.46481,667.91361 768.65474,667.9502 769.11901,667.9502 C 769.58328,667.9502 769.77321,667.91362 769.54108,667.86891 L 769.54108,667.86891 z M 767.66524,667.68132 C 767.4331,667.63661 767.05324,667.63661 766.82111,667.68132 C 766.58897,667.72603 766.7789,667.76261 767.24317,667.76261 C 767.70744,667.76262 767.89737,667.72603 767.66524,667.68132 L 767.66524,667.68132 z M 765.7894,667.49374 C 765.55726,667.44903 765.1774,667.44903 764.94527,667.49374 C 764.71313,667.53845 764.90306,667.57503 765.36733,667.57503 C 765.8316,667.57503 766.02153,667.53845 765.7894,667.49374 L 765.7894,667.49374 z M 763.91356,667.30616 C 763.68142,667.26144 763.30156,667.26144 763.06943,667.30615 C 762.83729,667.35086 763.02722,667.38745 763.49149,667.38745 C 763.95576,667.38745 764.14569,667.35086 763.91356,667.30615 L 763.91356,667.30616 z M 762.04029,667.11891 C 761.80958,667.07438 761.38751,667.07323 761.10237,667.11635 C 760.81724,667.15946 761.006,667.19589 761.52186,667.1973 C 762.03772,667.19871 762.27101,667.16343 762.04029,667.11891 L 762.04029,667.11891 z M 760.16445,666.93133 C 759.93374,666.8868 759.51167,666.88564 759.22652,666.92876 C 758.9414,666.97188 759.13016,667.00831 759.64602,667.00972 C 760.16188,667.01113 760.39517,666.97585 760.16445,666.93132 L 760.16445,666.93133 z M 758.2886,666.74374 C 758.0579,666.69921 757.63583,666.69806 757.35068,666.74118 C 757.06556,666.7843 757.25432,666.82073 757.77018,666.82213 C 758.28603,666.82354 758.51933,666.78826 758.2886,666.74374 L 758.2886,666.74374 z M 756.41276,666.55616 C 756.18206,666.51163 755.75999,666.51048 755.47484,666.55359 C 755.18972,666.59671 755.37848,666.63314 755.89434,666.63455 C 756.41019,666.63596 756.64349,666.60068 756.41276,666.55616 L 756.41276,666.55616 z M 754.53692,666.36857 C 754.30621,666.32405 753.88415,666.32289 753.599,666.36601 C 753.31388,666.40913 753.50264,666.44556 754.0185,666.44697 C 754.53435,666.44837 754.76765,666.4131 754.53692,666.36857 L 754.53692,666.36857 z M 729.16362,663.8602 C 716.00929,662.53452 694.44181,660.34612 681.2359,658.9971 C 668.02998,657.64807 657.02297,656.52644 656.77586,656.50459 C 656.52875,656.48275 656.2932,656.55953 656.25241,656.67523 C 656.20271,656.8162 656.96959,656.96219 658.57754,657.11784 C 659.89715,657.24557 681.27811,659.35628 706.09078,661.8083 C 730.90346,664.26033 751.6268,666.26743 752.14266,666.26853 C 752.65851,666.26963 742.31795,665.18588 729.16362,663.8602 z M 639.68604,655.05799 C 639.68604,654.95482 639.28508,654.87634 638.79501,654.88359 C 638.1246,654.89351 637.99688,654.93669 638.27916,655.05799 C 638.80353,655.28332 639.68604,655.28332 639.68604,655.05799 z" id="path3328"/>
      <path style="fill: rgb(255, 230, 0); fill-opacity: 1; fill-rule: evenodd; stroke: rgb(255, 230, 0); stroke-width: 0.777544; stroke-linecap: round; stroke-opacity: 1;" d="M 884.45726,680.17313 C 821.50996,673.95266 798.92712,671.78219 797.88724,671.85276 C 796.85984,671.92248 783.83548,670.70755 749.60152,667.34859 C 723.81816,664.81878 702.65165,662.74894 702.56483,662.74894 C 702.47801,662.74894 702.40697,659.22261 702.40697,654.91265 L 702.40697,647.07636 L 749.97633,642.24171 C 783.54409,638.8301 797.6151,637.46466 797.78149,637.60275 C 797.94793,637.74089 823.18088,635.23341 883.57973,629.0767 C 930.63908,624.27973 969.3553,620.35495 969.61577,620.35495 C 969.95932,620.35495 970.08937,620.45481 970.08937,620.71862 C 970.08937,621.00449 969.9188,621.10539 969.29214,621.19022 C 968.85366,621.24958 936.12259,624.5918 896.55643,628.61737 C 856.99027,632.64294 824.2381,636.00882 823.77383,636.09711 C 823.30956,636.1854 823.11643,636.26707 823.34464,636.27861 C 823.67717,636.29543 967.72889,621.66237 969.57351,621.42439 L 970.08937,621.35785 L 970.08937,654.99669 C 970.08937,681.79512 970.04168,688.6308 969.85489,688.61225 C 969.72592,688.59944 931.29699,684.80184 884.45726,680.17313 z M 805.23819,671.43725 C 805.10278,671.38306 804.94098,671.38972 804.87865,671.45205 C 804.81632,671.51438 804.92711,671.55872 805.12485,671.55058 C 805.34338,671.54158 805.38783,671.49713 805.23819,671.43725 z M 803.36235,671.24966 C 803.22694,671.19547 803.06514,671.20214 803.00281,671.26447 C 802.94048,671.3268 803.05127,671.37114 803.24901,671.36299 C 803.46754,671.35399 803.51199,671.30954 803.36235,671.24966 z M 801.48651,671.06208 C 801.3511,671.00789 801.1893,671.01455 801.12697,671.07689 C 801.06464,671.13922 801.17543,671.18355 801.37317,671.17541 C 801.5917,671.16641 801.63615,671.12196 801.48651,671.06208 z M 799.62239,670.8784 C 799.49343,670.82636 799.28239,670.82636 799.15343,670.8784 C 799.02447,670.93044 799.12998,670.97302 799.38791,670.97302 C 799.64584,670.97302 799.75135,670.93044 799.62239,670.8784 L 799.62239,670.8784 z M 810.80871,637.61374 C 820.32467,636.64563 823.05696,636.3119 821.60099,636.29555 C 820.46672,636.28282 798.32407,638.63371 798.16861,638.78337 C 798.04801,638.89948 798.31595,638.92183 798.91895,638.84595 C 799.43481,638.78104 804.7852,638.22655 810.80872,637.61374 L 810.80871,637.61374 z" id="path3330"/>
      <path style="fill: rgb(255, 230, 0); fill-opacity: 1; fill-rule: evenodd; stroke: rgb(255, 230, 0); stroke-width: 0.777544; stroke-linecap: round; stroke-opacity: 1;" d="M 1001.5669,691.70725 C 977.96496,689.36827 970.40939,688.67713 970.30409,688.84751 C 970.19883,689.01784 961.09799,688.17579 932.6785,685.36625 C 876.81277,679.84337 851.72155,677.38301 851.25021,677.38168 L 850.82815,677.38049 L 850.82815,654.69931 L 850.82815,632.01813 L 851.53159,631.90919 C 851.91848,631.84926 858.98805,631.12091 867.24175,630.29061 C 875.49544,629.46031 901.79003,626.7958 925.67417,624.36946 C 953.27392,621.56567 969.44974,619.99564 970.05991,620.06138 C 970.66644,620.12673 982.53334,618.99104 1002.2872,616.97716 C 1019.4842,615.22395 1033.6793,613.78951 1033.832,613.78951 C 1034.1779,613.78951 1034.4346,614.39628 1034.1315,614.49733 C 1033.9624,614.55371 1033.9101,623.94769 1033.9101,654.32329 C 1033.9101,690.35689 1033.9378,694.07547 1034.2053,694.07547 C 1034.3851,694.07547 1034.476,694.20378 1034.4381,694.40374 C 1034.3908,694.6527 1034.1722,694.73922 1033.5333,694.76185 C 1033.0699,694.77825 1018.6851,693.40369 1001.5669,691.70725 L 1001.5669,691.70725 z M 1032.7377,693.75858 C 1032.5572,693.7114 1032.2618,693.7114 1032.0812,693.75858 C 1031.9007,693.80576 1032.0484,693.84436 1032.4095,693.84436 C 1032.7706,693.84436 1032.9183,693.80576 1032.7377,693.75858 z M 1031.6009,692.24652 C 1031.5537,692.06597 1031.5151,692.2137 1031.5151,692.5748 C 1031.5151,692.9359 1031.5537,693.08362 1031.6009,692.90307 C 1031.648,692.72252 1031.648,692.42707 1031.6009,692.24652 z M 1031.7948,689.90172 C 1031.7532,689.56642 1031.7192,689.84076 1031.7192,690.51137 C 1031.7192,691.18198 1031.7532,691.45633 1031.7948,691.12102 C 1031.8365,690.78571 1031.8364,690.23703 1031.7948,689.90172 L 1031.7948,689.90172 z M 1031.9843,685.6748 C 1031.9458,685.18819 1031.9147,685.63419 1031.9152,686.6659 C 1031.9157,687.69761 1031.9472,688.09574 1031.9852,687.55064 C 1032.0233,687.00553 1032.0229,686.1614 1031.9843,685.6748 L 1031.9843,685.6748 z M 1032.1739,679.87455 C 1032.1386,679.07026 1032.1096,679.67839 1032.1093,681.22596 C 1032.1091,682.77353 1032.1379,683.43159 1032.1734,682.68831 C 1032.2089,681.94503 1032.2091,680.67884 1032.1739,679.87455 L 1032.1739,679.87455 z M 1032.3621,668.61094 C 1032.3303,667.19233 1032.3042,668.35301 1032.3042,671.19022 C 1032.3042,674.02743 1032.3303,675.1881 1032.3621,673.7695 C 1032.394,672.35089 1032.394,670.02954 1032.3621,668.61094 L 1032.3621,668.61094 z M 1032.7864,630.20311 L 1032.8807,645.585 L 1032.9264,630.15621 C 1032.9668,616.54644 1032.9391,614.72743 1032.6909,614.72743 C 1032.4421,614.72743 1032.4148,617.2968 1032.4552,636.90924 L 1032.501,659.09105 L 1032.5965,636.95613 L 1032.6921,614.82122 L 1032.7864,630.20311 z M 989.06844,619.38753 C 998.40042,618.42452 1005.8915,617.60883 1005.7152,617.57488 C 1005.2371,617.48281 971.62991,620.90155 970.97571,621.1088 C 970.24334,621.34082 968.92249,621.46648 989.06844,619.38753 z M 1009.5242,617.26836 C 1010.6075,617.13769 1011.1562,617.02694 1010.7435,617.02224 C 1010.3308,617.01755 1009.1069,617.12061 1008.0236,617.25127 C 1006.9403,617.38193 1006.3916,617.49268 1006.8043,617.49738 C 1007.2169,617.50208 1008.4409,617.39902 1009.5242,617.26835 L 1009.5242,617.26836 z M 1012.9502,616.84639 C 1012.7195,616.80186 1012.2974,616.80071 1012.0123,616.84383 C 1011.7272,616.88695 1011.9159,616.92338 1012.4318,616.92478 C 1012.9476,616.92619 1013.1809,616.89091 1012.9502,616.84639 L 1012.9502,616.84639 z M 1014.6359,616.65847 C 1014.4038,616.61376 1014.0239,616.61376 1013.7918,616.65847 C 1013.5596,616.70318 1013.7496,616.73976 1014.2138,616.73976 C 1014.6781,616.73976 1014.868,616.70318 1014.6359,616.65847 z M 1016.5117,616.47088 C 1016.2796,616.42617 1015.8997,616.42617 1015.6676,616.47088 C 1015.4355,616.51559 1015.6254,616.55218 1016.0897,616.55218 C 1016.5539,616.55218 1016.7439,616.51559 1016.5117,616.47088 z M 1018.3901,616.28364 C 1018.1594,616.23911 1017.7374,616.23796 1017.4522,616.28108 C 1017.1671,616.32419 1017.3559,616.36062 1017.8717,616.36203 C 1018.3876,616.36344 1018.6209,616.32816 1018.3902,616.28364 L 1018.3901,616.28364 z M 1020.0758,616.09572 C 1019.8437,616.051 1019.4638,616.051 1019.2317,616.09572 C 1018.9996,616.14043 1019.1895,616.17701 1019.6538,616.17701 C 1020.118,616.17701 1020.308,616.14043 1020.0758,616.09572 z M 1021.9517,615.90813 C 1021.7195,615.86342 1021.3397,615.86342 1021.1075,615.90813 C 1020.8754,615.95284 1021.0653,615.98943 1021.5296,615.98943 C 1021.9939,615.98942 1022.1838,615.95284 1021.9517,615.90813 z M 1023.8275,615.72055 C 1023.5954,615.67584 1023.2155,615.67584 1022.9834,615.72055 C 1022.7512,615.76526 1022.9412,615.80184 1023.4054,615.80184 C 1023.8697,615.80184 1024.0596,615.76526 1023.8275,615.72055 z M 1025.422,615.53604 C 1025.2414,615.48886 1024.946,615.48886 1024.7654,615.53604 C 1024.5849,615.58322 1024.7326,615.62183 1025.0937,615.62183 C 1025.4548,615.62183 1025.6025,615.58322 1025.422,615.53604 z M 1026.8171,615.34962 C 1026.6817,615.29544 1026.5199,615.3021 1026.4576,615.36443 C 1026.3953,615.42677 1026.5061,615.4711 1026.7038,615.46295 C 1026.9223,615.45395 1026.9668,615.4095 1026.8171,615.34962 z" id="path3332"/>
    </g>
    <g transform="matrix(1.40813, 0.867794, -0.524647, 0.85132, -481.622, -1005.57)" id="g3334">
      <g id="g3336" style="fill: rgb(255, 230, 0); fill-opacity: 1;">
        <path sodipodi:nodetypes="cc" inkscape:connector-type="polyline" id="path3338" d="M 633.06985,655.038 L 1034.2759,614.1448" style="fill: rgb(255, 230, 0); fill-opacity: 1; fill-rule: evenodd; stroke: rgb(255, 230, 0); stroke-width: 0.777544px; stroke-linecap: butt; stroke-linejoin: miter; stroke-opacity: 1;"/>
        <path sodipodi:nodetypes="cc" inkscape:connector-type="polyline" id="path3340" d="M 633.06985,655.038 L 1034.468,694.48464" style="fill: rgb(255, 230, 0); fill-opacity: 1; fill-rule: evenodd; stroke: rgb(255, 230, 0); stroke-width: 0.777544px; stroke-linecap: butt; stroke-linejoin: miter; stroke-opacity: 1;"/>
        <path sodipodi:nodetypes="cc" inkscape:connector-type="polyline" id="path3342" d="M 1033.4128,614.05559 L 1033.5153,694.86148" style="fill: rgb(255, 230, 0); fill-opacity: 1; fill-rule: evenodd; stroke: rgb(255, 230, 0); stroke-width: 0.777544px; stroke-linecap: butt; stroke-linejoin: miter; stroke-opacity: 1;"/>
      </g>
      <path style="fill: rgb(255, 230, 0); fill-opacity: 1; fill-rule: evenodd; stroke: rgb(255, 230, 0); stroke-width: 0.777544; stroke-linecap: round; stroke-opacity: 1;" d="M 837.77817,674.26222 C 732.17417,663.81637 646.2807,655.11189 646.90381,654.91895 C 647.52692,654.72602 731.3274,646.10838 833.12707,635.76866 C 934.92674,625.42893 1021.3082,616.57122 1025.086,616.08486 L 1031.9546,615.20058 L 1031.9546,654.37876 C 1031.9546,675.92676 1031.4665,693.48895 1030.87,693.40584 C 1030.2736,693.32272 943.38223,684.70811 837.7782,674.26223 L 837.77817,674.26222 z" id="path3344"/>
      <path style="fill: rgb(255, 230, 0); fill-opacity: 1; fill-rule: evenodd; stroke: rgb(255, 230, 0); stroke-width: 0.777544; stroke-linecap: round; stroke-opacity: 1;" d="M 647.51482,655.90697 C 643.20585,655.47128 639.64009,655.07457 639.59091,655.02539 C 639.5046,654.93909 645.53394,654.30082 646.39217,654.3054 C 646.73497,654.30723 646.81423,654.41267 646.81423,654.86683 C 646.81423,655.56549 646.51259,655.49586 652.44175,656.16583 C 655.07262,656.46311 656.80308,656.70471 656.28722,656.70273 C 655.77137,656.70075 651.82378,656.34266 647.51482,655.90697 L 647.51482,655.90697 z" id="path3346"/>
      <path style="fill: rgb(255, 230, 0); fill-opacity: 1; fill-rule: evenodd; stroke: rgb(255, 230, 0); stroke-width: 0.777544; stroke-linecap: round; stroke-opacity: 1;" d="M 714.62585,663.4896 C 669.84955,659.07114 633.19329,655.45089 633.16749,655.4446 C 633.1417,655.43831 633.1206,655.22213 633.1206,654.9642 C 633.1206,654.57185 633.20941,654.49524 633.66425,654.49524 C 634.21716,654.49524 795.64047,638.08517 796.92834,637.89804 C 797.57226,637.80448 797.63178,637.83348 797.63178,638.24088 C 797.63178,638.63278 797.52537,638.69782 796.74076,638.78554 C 796.2507,638.84032 762.40116,642.29163 721.51957,646.4551 C 664.58423,652.25353 647.1894,654.08207 647.1894,654.26865 C 647.1894,654.43949 647.37149,654.48156 647.79905,654.40952 C 649.39905,654.13994 682.66492,650.69723 747.48769,644.09265 C 774.29316,641.36153 796.54145,639.08071 796.92834,639.02416 L 797.63178,638.92133 L 797.63178,654.7744 C 797.63178,669.73921 797.61338,670.62868 797.30351,670.64923 C 796.99086,670.66995 796.99086,670.67507 797.30351,670.75677 C 797.48406,670.80395 797.63178,671.00519 797.63178,671.20397 C 797.63178,671.50742 797.50393,671.562 796.83455,671.54428 C 796.39607,671.53267 759.40216,667.90807 714.62585,663.4896 L 714.62585,663.4896 z M 795.80284,670.50323 C 795.67387,670.45119 795.46284,670.45119 795.33388,670.50323 C 795.20491,670.55527 795.31043,670.59785 795.56836,670.59785 C 795.82629,670.59785 795.9318,670.55527 795.80284,670.50323 L 795.80284,670.50323 z M 794.01723,670.30989 C 793.83471,670.26233 793.58147,670.26545 793.45447,670.31684 C 793.32746,670.36822 793.4768,670.40714 793.78631,670.40331 C 794.09582,670.39949 794.19973,670.35745 794.01723,670.30989 z M 792.14139,670.1223 C 791.95887,670.07474 791.70563,670.07787 791.57863,670.12925 C 791.45162,670.18064 791.60096,670.21955 791.91047,670.21573 C 792.21998,670.21191 792.32389,670.16986 792.14139,670.1223 z M 790.26555,669.93472 C 790.08303,669.88716 789.82979,669.89029 789.70279,669.94167 C 789.57578,669.99305 789.72512,670.03197 790.03463,670.02814 C 790.34414,670.02432 790.44805,669.98228 790.26555,669.93472 z M 788.39327,669.74782 C 788.21272,669.70064 787.91728,669.70064 787.73673,669.74782 C 787.55618,669.79501 787.7039,669.83361 788.065,669.83361 C 788.4261,669.83361 788.57382,669.79501 788.39327,669.74782 z M 786.51743,669.56024 C 786.33688,669.51306 786.04144,669.51306 785.86089,669.56024 C 785.68034,669.60742 785.82806,669.64603 786.18916,669.64603 C 786.55026,669.64602 786.69798,669.60742 786.51743,669.56024 z M 784.64159,669.37265 C 784.46104,669.32547 784.1656,669.32547 783.98505,669.37265 C 783.8045,669.41984 783.95222,669.45844 784.31332,669.45844 C 784.67442,669.45844 784.82214,669.41984 784.64159,669.37265 z M 782.76575,669.18507 C 782.5852,669.13789 782.28976,669.13789 782.10921,669.18507 C 781.92866,669.23225 782.07638,669.27086 782.43748,669.27086 C 782.79858,669.27086 782.9463,669.23225 782.76575,669.18507 z M 780.79392,668.99413 C 780.56059,668.94925 780.22294,668.95096 780.04359,668.99791 C 779.86426,669.04486 780.05516,669.08157 780.46785,669.07949 C 780.88053,669.0774 781.02728,669.03899 780.79392,668.99412 L 780.79392,668.99413 z M 778.91808,668.80654 C 778.68475,668.76167 778.3471,668.76337 778.16775,668.81032 C 777.98842,668.85727 778.17932,668.89399 778.59201,668.8919 C 779.00469,668.88982 779.15144,668.85141 778.91808,668.80654 L 778.91808,668.80654 z M 777.04224,668.61896 C 776.80891,668.57409 776.47126,668.57579 776.29191,668.62274 C 776.11258,668.66969 776.30348,668.7064 776.71616,668.70432 C 777.12885,668.70224 777.2756,668.66382 777.04224,668.61895 L 777.04224,668.61896 z M 775.1664,668.43137 C 774.93307,668.3865 774.59542,668.38821 774.41607,668.43516 C 774.23674,668.4821 774.42764,668.51882 774.84032,668.51674 C 775.25301,668.51465 775.39976,668.47624 775.1664,668.43137 L 775.1664,668.43137 z M 773.29056,668.24379 C 773.05723,668.19892 772.71957,668.20062 772.54023,668.24757 C 772.3609,668.29452 772.5518,668.33123 772.96448,668.32915 C 773.37717,668.32707 773.52392,668.28865 773.29056,668.24379 L 773.29056,668.24379 z M 771.41692,668.05649 C 771.18478,668.01178 770.80492,668.01178 770.57279,668.05649 C 770.34065,668.1012 770.53058,668.13778 770.99485,668.13778 C 771.45912,668.13778 771.64905,668.1012 771.41692,668.05649 L 771.41692,668.05649 z M 769.54108,667.86891 C 769.30894,667.82419 768.92908,667.82419 768.69695,667.86891 C 768.46481,667.91361 768.65474,667.9502 769.11901,667.9502 C 769.58328,667.9502 769.77321,667.91362 769.54108,667.86891 L 769.54108,667.86891 z M 767.66524,667.68132 C 767.4331,667.63661 767.05324,667.63661 766.82111,667.68132 C 766.58897,667.72603 766.7789,667.76261 767.24317,667.76261 C 767.70744,667.76262 767.89737,667.72603 767.66524,667.68132 L 767.66524,667.68132 z M 765.7894,667.49374 C 765.55726,667.44903 765.1774,667.44903 764.94527,667.49374 C 764.71313,667.53845 764.90306,667.57503 765.36733,667.57503 C 765.8316,667.57503 766.02153,667.53845 765.7894,667.49374 L 765.7894,667.49374 z M 763.91356,667.30616 C 763.68142,667.26144 763.30156,667.26144 763.06943,667.30615 C 762.83729,667.35086 763.02722,667.38745 763.49149,667.38745 C 763.95576,667.38745 764.14569,667.35086 763.91356,667.30615 L 763.91356,667.30616 z M 762.04029,667.11891 C 761.80958,667.07438 761.38751,667.07323 761.10237,667.11635 C 760.81724,667.15946 761.006,667.19589 761.52186,667.1973 C 762.03772,667.19871 762.27101,667.16343 762.04029,667.11891 L 762.04029,667.11891 z M 760.16445,666.93133 C 759.93374,666.8868 759.51167,666.88564 759.22652,666.92876 C 758.9414,666.97188 759.13016,667.00831 759.64602,667.00972 C 760.16188,667.01113 760.39517,666.97585 760.16445,666.93132 L 760.16445,666.93133 z M 758.2886,666.74374 C 758.0579,666.69921 757.63583,666.69806 757.35068,666.74118 C 757.06556,666.7843 757.25432,666.82073 757.77018,666.82213 C 758.28603,666.82354 758.51933,666.78826 758.2886,666.74374 L 758.2886,666.74374 z M 756.41276,666.55616 C 756.18206,666.51163 755.75999,666.51048 755.47484,666.55359 C 755.18972,666.59671 755.37848,666.63314 755.89434,666.63455 C 756.41019,666.63596 756.64349,666.60068 756.41276,666.55616 L 756.41276,666.55616 z M 754.53692,666.36857 C 754.30621,666.32405 753.88415,666.32289 753.599,666.36601 C 753.31388,666.40913 753.50264,666.44556 754.0185,666.44697 C 754.53435,666.44837 754.76765,666.4131 754.53692,666.36857 L 754.53692,666.36857 z M 729.16362,663.8602 C 716.00929,662.53452 694.44181,660.34612 681.2359,658.9971 C 668.02998,657.64807 657.02297,656.52644 656.77586,656.50459 C 656.52875,656.48275 656.2932,656.55953 656.25241,656.67523 C 656.20271,656.8162 656.96959,656.96219 658.57754,657.11784 C 659.89715,657.24557 681.27811,659.35628 706.09078,661.8083 C 730.90346,664.26033 751.6268,666.26743 752.14266,666.26853 C 752.65851,666.26963 742.31795,665.18588 729.16362,663.8602 z M 639.68604,655.05799 C 639.68604,654.95482 639.28508,654.87634 638.79501,654.88359 C 638.1246,654.89351 637.99688,654.93669 638.27916,655.05799 C 638.80353,655.28332 639.68604,655.28332 639.68604,655.05799 z" id="path3348"/>
      <path style="fill: rgb(255, 230, 0); fill-opacity: 1; fill-rule: evenodd; stroke: rgb(255, 230, 0); stroke-width: 0.777544; stroke-linecap: round; stroke-opacity: 1;" d="M 884.45726,680.17313 C 821.50996,673.95266 798.92712,671.78219 797.88724,671.85276 C 796.85984,671.92248 783.83548,670.70755 749.60152,667.34859 C 723.81816,664.81878 702.65165,662.74894 702.56483,662.74894 C 702.47801,662.74894 702.40697,659.22261 702.40697,654.91265 L 702.40697,647.07636 L 749.97633,642.24171 C 783.54409,638.8301 797.6151,637.46466 797.78149,637.60275 C 797.94793,637.74089 823.18088,635.23341 883.57973,629.0767 C 930.63908,624.27973 969.3553,620.35495 969.61577,620.35495 C 969.95932,620.35495 970.08937,620.45481 970.08937,620.71862 C 970.08937,621.00449 969.9188,621.10539 969.29214,621.19022 C 968.85366,621.24958 936.12259,624.5918 896.55643,628.61737 C 856.99027,632.64294 824.2381,636.00882 823.77383,636.09711 C 823.30956,636.1854 823.11643,636.26707 823.34464,636.27861 C 823.67717,636.29543 967.72889,621.66237 969.57351,621.42439 L 970.08937,621.35785 L 970.08937,654.99669 C 970.08937,681.79512 970.04168,688.6308 969.85489,688.61225 C 969.72592,688.59944 931.29699,684.80184 884.45726,680.17313 z M 805.23819,671.43725 C 805.10278,671.38306 804.94098,671.38972 804.87865,671.45205 C 804.81632,671.51438 804.92711,671.55872 805.12485,671.55058 C 805.34338,671.54158 805.38783,671.49713 805.23819,671.43725 z M 803.36235,671.24966 C 803.22694,671.19547 803.06514,671.20214 803.00281,671.26447 C 802.94048,671.3268 803.05127,671.37114 803.24901,671.36299 C 803.46754,671.35399 803.51199,671.30954 803.36235,671.24966 z M 801.48651,671.06208 C 801.3511,671.00789 801.1893,671.01455 801.12697,671.07689 C 801.06464,671.13922 801.17543,671.18355 801.37317,671.17541 C 801.5917,671.16641 801.63615,671.12196 801.48651,671.06208 z M 799.62239,670.8784 C 799.49343,670.82636 799.28239,670.82636 799.15343,670.8784 C 799.02447,670.93044 799.12998,670.97302 799.38791,670.97302 C 799.64584,670.97302 799.75135,670.93044 799.62239,670.8784 L 799.62239,670.8784 z M 810.80871,637.61374 C 820.32467,636.64563 823.05696,636.3119 821.60099,636.29555 C 820.46672,636.28282 798.32407,638.63371 798.16861,638.78337 C 798.04801,638.89948 798.31595,638.92183 798.91895,638.84595 C 799.43481,638.78104 804.7852,638.22655 810.80872,637.61374 L 810.80871,637.61374 z" id="path3350"/>
      <path style="fill: rgb(255, 230, 0); fill-opacity: 1; fill-rule: evenodd; stroke: rgb(255, 230, 0); stroke-width: 0.777544; stroke-linecap: round; stroke-opacity: 1;" d="M 1001.5669,691.70725 C 977.96496,689.36827 970.40939,688.67713 970.30409,688.84751 C 970.19883,689.01784 961.09799,688.17579 932.6785,685.36625 C 876.81277,679.84337 851.72155,677.38301 851.25021,677.38168 L 850.82815,677.38049 L 850.82815,654.69931 L 850.82815,632.01813 L 851.53159,631.90919 C 851.91848,631.84926 858.98805,631.12091 867.24175,630.29061 C 875.49544,629.46031 901.79003,626.7958 925.67417,624.36946 C 953.27392,621.56567 969.44974,619.99564 970.05991,620.06138 C 970.66644,620.12673 982.53334,618.99104 1002.2872,616.97716 C 1019.4842,615.22395 1033.6793,613.78951 1033.832,613.78951 C 1034.1779,613.78951 1034.4346,614.39628 1034.1315,614.49733 C 1033.9624,614.55371 1033.9101,623.94769 1033.9101,654.32329 C 1033.9101,690.35689 1033.9378,694.07547 1034.2053,694.07547 C 1034.3851,694.07547 1034.476,694.20378 1034.4381,694.40374 C 1034.3908,694.6527 1034.1722,694.73922 1033.5333,694.76185 C 1033.0699,694.77825 1018.6851,693.40369 1001.5669,691.70725 L 1001.5669,691.70725 z M 1032.7377,693.75858 C 1032.5572,693.7114 1032.2618,693.7114 1032.0812,693.75858 C 1031.9007,693.80576 1032.0484,693.84436 1032.4095,693.84436 C 1032.7706,693.84436 1032.9183,693.80576 1032.7377,693.75858 z M 1031.6009,692.24652 C 1031.5537,692.06597 1031.5151,692.2137 1031.5151,692.5748 C 1031.5151,692.9359 1031.5537,693.08362 1031.6009,692.90307 C 1031.648,692.72252 1031.648,692.42707 1031.6009,692.24652 z M 1031.7948,689.90172 C 1031.7532,689.56642 1031.7192,689.84076 1031.7192,690.51137 C 1031.7192,691.18198 1031.7532,691.45633 1031.7948,691.12102 C 1031.8365,690.78571 1031.8364,690.23703 1031.7948,689.90172 L 1031.7948,689.90172 z M 1031.9843,685.6748 C 1031.9458,685.18819 1031.9147,685.63419 1031.9152,686.6659 C 1031.9157,687.69761 1031.9472,688.09574 1031.9852,687.55064 C 1032.0233,687.00553 1032.0229,686.1614 1031.9843,685.6748 L 1031.9843,685.6748 z M 1032.1739,679.87455 C 1032.1386,679.07026 1032.1096,679.67839 1032.1093,681.22596 C 1032.1091,682.77353 1032.1379,683.43159 1032.1734,682.68831 C 1032.2089,681.94503 1032.2091,680.67884 1032.1739,679.87455 L 1032.1739,679.87455 z M 1032.3621,668.61094 C 1032.3303,667.19233 1032.3042,668.35301 1032.3042,671.19022 C 1032.3042,674.02743 1032.3303,675.1881 1032.3621,673.7695 C 1032.394,672.35089 1032.394,670.02954 1032.3621,668.61094 L 1032.3621,668.61094 z M 1032.7864,630.20311 L 1032.8807,645.585 L 1032.9264,630.15621 C 1032.9668,616.54644 1032.9391,614.72743 1032.6909,614.72743 C 1032.4421,614.72743 1032.4148,617.2968 1032.4552,636.90924 L 1032.501,659.09105 L 1032.5965,636.95613 L 1032.6921,614.82122 L 1032.7864,630.20311 z M 989.06844,619.38753 C 998.40042,618.42452 1005.8915,617.60883 1005.7152,617.57488 C 1005.2371,617.48281 971.62991,620.90155 970.97571,621.1088 C 970.24334,621.34082 968.92249,621.46648 989.06844,619.38753 z M 1009.5242,617.26836 C 1010.6075,617.13769 1011.1562,617.02694 1010.7435,617.02224 C 1010.3308,617.01755 1009.1069,617.12061 1008.0236,617.25127 C 1006.9403,617.38193 1006.3916,617.49268 1006.8043,617.49738 C 1007.2169,617.50208 1008.4409,617.39902 1009.5242,617.26835 L 1009.5242,617.26836 z M 1012.9502,616.84639 C 1012.7195,616.80186 1012.2974,616.80071 1012.0123,616.84383 C 1011.7272,616.88695 1011.9159,616.92338 1012.4318,616.92478 C 1012.9476,616.92619 1013.1809,616.89091 1012.9502,616.84639 L 1012.9502,616.84639 z M 1014.6359,616.65847 C 1014.4038,616.61376 1014.0239,616.61376 1013.7918,616.65847 C 1013.5596,616.70318 1013.7496,616.73976 1014.2138,616.73976 C 1014.6781,616.73976 1014.868,616.70318 1014.6359,616.65847 z M 1016.5117,616.47088 C 1016.2796,616.42617 1015.8997,616.42617 1015.6676,616.47088 C 1015.4355,616.51559 1015.6254,616.55218 1016.0897,616.55218 C 1016.5539,616.55218 1016.7439,616.51559 1016.5117,616.47088 z M 1018.3901,616.28364 C 1018.1594,616.23911 1017.7374,616.23796 1017.4522,616.28108 C 1017.1671,616.32419 1017.3559,616.36062 1017.8717,616.36203 C 1018.3876,616.36344 1018.6209,616.32816 1018.3902,616.28364 L 1018.3901,616.28364 z M 1020.0758,616.09572 C 1019.8437,616.051 1019.4638,616.051 1019.2317,616.09572 C 1018.9996,616.14043 1019.1895,616.17701 1019.6538,616.17701 C 1020.118,616.17701 1020.308,616.14043 1020.0758,616.09572 z M 1021.9517,615.90813 C 1021.7195,615.86342 1021.3397,615.86342 1021.1075,615.90813 C 1020.8754,615.95284 1021.0653,615.98943 1021.5296,615.98943 C 1021.9939,615.98942 1022.1838,615.95284 1021.9517,615.90813 z M 1023.8275,615.72055 C 1023.5954,615.67584 1023.2155,615.67584 1022.9834,615.72055 C 1022.7512,615.76526 1022.9412,615.80184 1023.4054,615.80184 C 1023.8697,615.80184 1024.0596,615.76526 1023.8275,615.72055 z M 1025.422,615.53604 C 1025.2414,615.48886 1024.946,615.48886 1024.7654,615.53604 C 1024.5849,615.58322 1024.7326,615.62183 1025.0937,615.62183 C 1025.4548,615.62183 1025.6025,615.58322 1025.422,615.53604 z M 1026.8171,615.34962 C 1026.6817,615.29544 1026.5199,615.3021 1026.4576,615.36443 C 1026.3953,615.42677 1026.5061,615.4711 1026.7038,615.46295 C 1026.9223,615.45395 1026.9668,615.4095 1026.8171,615.34962 z" id="path3352"/>
    </g>
    <g transform="matrix(-0.00473076, 1.14615, -0.999996, -0.00198186, 732.743, -638.171)" id="g3354">
      <g id="g3356" style="fill: rgb(255, 230, 0); fill-opacity: 1;">
        <path sodipodi:nodetypes="cc" inkscape:connector-type="polyline" id="path3358" d="M 633.06985,655.038 L 1034.2759,614.1448" style="fill: rgb(255, 230, 0); fill-opacity: 1; fill-rule: evenodd; stroke: rgb(255, 230, 0); stroke-width: 0.93407px; stroke-linecap: butt; stroke-linejoin: miter; stroke-opacity: 1;"/>
        <path sodipodi:nodetypes="cc" inkscape:connector-type="polyline" id="path3360" d="M 633.06985,655.038 L 1034.468,694.48464" style="fill: rgb(255, 230, 0); fill-opacity: 1; fill-rule: evenodd; stroke: rgb(255, 230, 0); stroke-width: 0.93407px; stroke-linecap: butt; stroke-linejoin: miter; stroke-opacity: 1;"/>
        <path sodipodi:nodetypes="cc" inkscape:connector-type="polyline" id="path3362" d="M 1033.4128,614.05559 L 1033.5153,694.86148" style="fill: rgb(255, 230, 0); fill-opacity: 1; fill-rule: evenodd; stroke: rgb(255, 230, 0); stroke-width: 0.93407px; stroke-linecap: butt; stroke-linejoin: miter; stroke-opacity: 1;"/>
      </g>
      <path style="fill: rgb(255, 230, 0); fill-opacity: 1; fill-rule: evenodd; stroke: rgb(255, 230, 0); stroke-width: 0.93407; stroke-linecap: round; stroke-opacity: 1;" d="M 837.77817,674.26222 C 732.17417,663.81637 646.2807,655.11189 646.90381,654.91895 C 647.52692,654.72602 731.3274,646.10838 833.12707,635.76866 C 934.92674,625.42893 1021.3082,616.57122 1025.086,616.08486 L 1031.9546,615.20058 L 1031.9546,654.37876 C 1031.9546,675.92676 1031.4665,693.48895 1030.87,693.40584 C 1030.2736,693.32272 943.38223,684.70811 837.7782,674.26223 L 837.77817,674.26222 z" id="path3364"/>
      <path style="fill: rgb(255, 230, 0); fill-opacity: 1; fill-rule: evenodd; stroke: rgb(255, 230, 0); stroke-width: 0.93407; stroke-linecap: round; stroke-opacity: 1;" d="M 647.51482,655.90697 C 643.20585,655.47128 639.64009,655.07457 639.59091,655.02539 C 639.5046,654.93909 645.53394,654.30082 646.39217,654.3054 C 646.73497,654.30723 646.81423,654.41267 646.81423,654.86683 C 646.81423,655.56549 646.51259,655.49586 652.44175,656.16583 C 655.07262,656.46311 656.80308,656.70471 656.28722,656.70273 C 655.77137,656.70075 651.82378,656.34266 647.51482,655.90697 L 647.51482,655.90697 z" id="path3366"/>
      <path style="fill: rgb(255, 230, 0); fill-opacity: 1; fill-rule: evenodd; stroke: rgb(255, 230, 0); stroke-width: 0.93407; stroke-linecap: round; stroke-opacity: 1;" d="M 714.62585,663.4896 C 669.84955,659.07114 633.19329,655.45089 633.16749,655.4446 C 633.1417,655.43831 633.1206,655.22213 633.1206,654.9642 C 633.1206,654.57185 633.20941,654.49524 633.66425,654.49524 C 634.21716,654.49524 795.64047,638.08517 796.92834,637.89804 C 797.57226,637.80448 797.63178,637.83348 797.63178,638.24088 C 797.63178,638.63278 797.52537,638.69782 796.74076,638.78554 C 796.2507,638.84032 762.40116,642.29163 721.51957,646.4551 C 664.58423,652.25353 647.1894,654.08207 647.1894,654.26865 C 647.1894,654.43949 647.37149,654.48156 647.79905,654.40952 C 649.39905,654.13994 682.66492,650.69723 747.48769,644.09265 C 774.29316,641.36153 796.54145,639.08071 796.92834,639.02416 L 797.63178,638.92133 L 797.63178,654.7744 C 797.63178,669.73921 797.61338,670.62868 797.30351,670.64923 C 796.99086,670.66995 796.99086,670.67507 797.30351,670.75677 C 797.48406,670.80395 797.63178,671.00519 797.63178,671.20397 C 797.63178,671.50742 797.50393,671.562 796.83455,671.54428 C 796.39607,671.53267 759.40216,667.90807 714.62585,663.4896 L 714.62585,663.4896 z M 795.80284,670.50323 C 795.67387,670.45119 795.46284,670.45119 795.33388,670.50323 C 795.20491,670.55527 795.31043,670.59785 795.56836,670.59785 C 795.82629,670.59785 795.9318,670.55527 795.80284,670.50323 L 795.80284,670.50323 z M 794.01723,670.30989 C 793.83471,670.26233 793.58147,670.26545 793.45447,670.31684 C 793.32746,670.36822 793.4768,670.40714 793.78631,670.40331 C 794.09582,670.39949 794.19973,670.35745 794.01723,670.30989 z M 792.14139,670.1223 C 791.95887,670.07474 791.70563,670.07787 791.57863,670.12925 C 791.45162,670.18064 791.60096,670.21955 791.91047,670.21573 C 792.21998,670.21191 792.32389,670.16986 792.14139,670.1223 z M 790.26555,669.93472 C 790.08303,669.88716 789.82979,669.89029 789.70279,669.94167 C 789.57578,669.99305 789.72512,670.03197 790.03463,670.02814 C 790.34414,670.02432 790.44805,669.98228 790.26555,669.93472 z M 788.39327,669.74782 C 788.21272,669.70064 787.91728,669.70064 787.73673,669.74782 C 787.55618,669.79501 787.7039,669.83361 788.065,669.83361 C 788.4261,669.83361 788.57382,669.79501 788.39327,669.74782 z M 786.51743,669.56024 C 786.33688,669.51306 786.04144,669.51306 785.86089,669.56024 C 785.68034,669.60742 785.82806,669.64603 786.18916,669.64603 C 786.55026,669.64602 786.69798,669.60742 786.51743,669.56024 z M 784.64159,669.37265 C 784.46104,669.32547 784.1656,669.32547 783.98505,669.37265 C 783.8045,669.41984 783.95222,669.45844 784.31332,669.45844 C 784.67442,669.45844 784.82214,669.41984 784.64159,669.37265 z M 782.76575,669.18507 C 782.5852,669.13789 782.28976,669.13789 782.10921,669.18507 C 781.92866,669.23225 782.07638,669.27086 782.43748,669.27086 C 782.79858,669.27086 782.9463,669.23225 782.76575,669.18507 z M 780.79392,668.99413 C 780.56059,668.94925 780.22294,668.95096 780.04359,668.99791 C 779.86426,669.04486 780.05516,669.08157 780.46785,669.07949 C 780.88053,669.0774 781.02728,669.03899 780.79392,668.99412 L 780.79392,668.99413 z M 778.91808,668.80654 C 778.68475,668.76167 778.3471,668.76337 778.16775,668.81032 C 777.98842,668.85727 778.17932,668.89399 778.59201,668.8919 C 779.00469,668.88982 779.15144,668.85141 778.91808,668.80654 L 778.91808,668.80654 z M 777.04224,668.61896 C 776.80891,668.57409 776.47126,668.57579 776.29191,668.62274 C 776.11258,668.66969 776.30348,668.7064 776.71616,668.70432 C 777.12885,668.70224 777.2756,668.66382 777.04224,668.61895 L 777.04224,668.61896 z M 775.1664,668.43137 C 774.93307,668.3865 774.59542,668.38821 774.41607,668.43516 C 774.23674,668.4821 774.42764,668.51882 774.84032,668.51674 C 775.25301,668.51465 775.39976,668.47624 775.1664,668.43137 L 775.1664,668.43137 z M 773.29056,668.24379 C 773.05723,668.19892 772.71957,668.20062 772.54023,668.24757 C 772.3609,668.29452 772.5518,668.33123 772.96448,668.32915 C 773.37717,668.32707 773.52392,668.28865 773.29056,668.24379 L 773.29056,668.24379 z M 771.41692,668.05649 C 771.18478,668.01178 770.80492,668.01178 770.57279,668.05649 C 770.34065,668.1012 770.53058,668.13778 770.99485,668.13778 C 771.45912,668.13778 771.64905,668.1012 771.41692,668.05649 L 771.41692,668.05649 z M 769.54108,667.86891 C 769.30894,667.82419 768.92908,667.82419 768.69695,667.86891 C 768.46481,667.91361 768.65474,667.9502 769.11901,667.9502 C 769.58328,667.9502 769.77321,667.91362 769.54108,667.86891 L 769.54108,667.86891 z M 767.66524,667.68132 C 767.4331,667.63661 767.05324,667.63661 766.82111,667.68132 C 766.58897,667.72603 766.7789,667.76261 767.24317,667.76261 C 767.70744,667.76262 767.89737,667.72603 767.66524,667.68132 L 767.66524,667.68132 z M 765.7894,667.49374 C 765.55726,667.44903 765.1774,667.44903 764.94527,667.49374 C 764.71313,667.53845 764.90306,667.57503 765.36733,667.57503 C 765.8316,667.57503 766.02153,667.53845 765.7894,667.49374 L 765.7894,667.49374 z M 763.91356,667.30616 C 763.68142,667.26144 763.30156,667.26144 763.06943,667.30615 C 762.83729,667.35086 763.02722,667.38745 763.49149,667.38745 C 763.95576,667.38745 764.14569,667.35086 763.91356,667.30615 L 763.91356,667.30616 z M 762.04029,667.11891 C 761.80958,667.07438 761.38751,667.07323 761.10237,667.11635 C 760.81724,667.15946 761.006,667.19589 761.52186,667.1973 C 762.03772,667.19871 762.27101,667.16343 762.04029,667.11891 L 762.04029,667.11891 z M 760.16445,666.93133 C 759.93374,666.8868 759.51167,666.88564 759.22652,666.92876 C 758.9414,666.97188 759.13016,667.00831 759.64602,667.00972 C 760.16188,667.01113 760.39517,666.97585 760.16445,666.93132 L 760.16445,666.93133 z M 758.2886,666.74374 C 758.0579,666.69921 757.63583,666.69806 757.35068,666.74118 C 757.06556,666.7843 757.25432,666.82073 757.77018,666.82213 C 758.28603,666.82354 758.51933,666.78826 758.2886,666.74374 L 758.2886,666.74374 z M 756.41276,666.55616 C 756.18206,666.51163 755.75999,666.51048 755.47484,666.55359 C 755.18972,666.59671 755.37848,666.63314 755.89434,666.63455 C 756.41019,666.63596 756.64349,666.60068 756.41276,666.55616 L 756.41276,666.55616 z M 754.53692,666.36857 C 754.30621,666.32405 753.88415,666.32289 753.599,666.36601 C 753.31388,666.40913 753.50264,666.44556 754.0185,666.44697 C 754.53435,666.44837 754.76765,666.4131 754.53692,666.36857 L 754.53692,666.36857 z M 729.16362,663.8602 C 716.00929,662.53452 694.44181,660.34612 681.2359,658.9971 C 668.02998,657.64807 657.02297,656.52644 656.77586,656.50459 C 656.52875,656.48275 656.2932,656.55953 656.25241,656.67523 C 656.20271,656.8162 656.96959,656.96219 658.57754,657.11784 C 659.89715,657.24557 681.27811,659.35628 706.09078,661.8083 C 730.90346,664.26033 751.6268,666.26743 752.14266,666.26853 C 752.65851,666.26963 742.31795,665.18588 729.16362,663.8602 z M 639.68604,655.05799 C 639.68604,654.95482 639.28508,654.87634 638.79501,654.88359 C 638.1246,654.89351 637.99688,654.93669 638.27916,655.05799 C 638.80353,655.28332 639.68604,655.28332 639.68604,655.05799 z" id="path3368"/>
      <path style="fill: rgb(255, 230, 0); fill-opacity: 1; fill-rule: evenodd; stroke: rgb(255, 230, 0); stroke-width: 0.93407; stroke-linecap: round; stroke-opacity: 1;" d="M 884.45726,680.17313 C 821.50996,673.95266 798.92712,671.78219 797.88724,671.85276 C 796.85984,671.92248 783.83548,670.70755 749.60152,667.34859 C 723.81816,664.81878 702.65165,662.74894 702.56483,662.74894 C 702.47801,662.74894 702.40697,659.22261 702.40697,654.91265 L 702.40697,647.07636 L 749.97633,642.24171 C 783.54409,638.8301 797.6151,637.46466 797.78149,637.60275 C 797.94793,637.74089 823.18088,635.23341 883.57973,629.0767 C 930.63908,624.27973 969.3553,620.35495 969.61577,620.35495 C 969.95932,620.35495 970.08937,620.45481 970.08937,620.71862 C 970.08937,621.00449 969.9188,621.10539 969.29214,621.19022 C 968.85366,621.24958 936.12259,624.5918 896.55643,628.61737 C 856.99027,632.64294 824.2381,636.00882 823.77383,636.09711 C 823.30956,636.1854 823.11643,636.26707 823.34464,636.27861 C 823.67717,636.29543 967.72889,621.66237 969.57351,621.42439 L 970.08937,621.35785 L 970.08937,654.99669 C 970.08937,681.79512 970.04168,688.6308 969.85489,688.61225 C 969.72592,688.59944 931.29699,684.80184 884.45726,680.17313 z M 805.23819,671.43725 C 805.10278,671.38306 804.94098,671.38972 804.87865,671.45205 C 804.81632,671.51438 804.92711,671.55872 805.12485,671.55058 C 805.34338,671.54158 805.38783,671.49713 805.23819,671.43725 z M 803.36235,671.24966 C 803.22694,671.19547 803.06514,671.20214 803.00281,671.26447 C 802.94048,671.3268 803.05127,671.37114 803.24901,671.36299 C 803.46754,671.35399 803.51199,671.30954 803.36235,671.24966 z M 801.48651,671.06208 C 801.3511,671.00789 801.1893,671.01455 801.12697,671.07689 C 801.06464,671.13922 801.17543,671.18355 801.37317,671.17541 C 801.5917,671.16641 801.63615,671.12196 801.48651,671.06208 z M 799.62239,670.8784 C 799.49343,670.82636 799.28239,670.82636 799.15343,670.8784 C 799.02447,670.93044 799.12998,670.97302 799.38791,670.97302 C 799.64584,670.97302 799.75135,670.93044 799.62239,670.8784 L 799.62239,670.8784 z M 810.80871,637.61374 C 820.32467,636.64563 823.05696,636.3119 821.60099,636.29555 C 820.46672,636.28282 798.32407,638.63371 798.16861,638.78337 C 798.04801,638.89948 798.31595,638.92183 798.91895,638.84595 C 799.43481,638.78104 804.7852,638.22655 810.80872,637.61374 L 810.80871,637.61374 z" id="path3370"/>
      <path style="fill: rgb(255, 230, 0); fill-opacity: 1; fill-rule: evenodd; stroke: rgb(255, 230, 0); stroke-width: 0.93407; stroke-linecap: round; stroke-opacity: 1;" d="M 1001.5669,691.70725 C 977.96496,689.36827 970.40939,688.67713 970.30409,688.84751 C 970.19883,689.01784 961.09799,688.17579 932.6785,685.36625 C 876.81277,679.84337 851.72155,677.38301 851.25021,677.38168 L 850.82815,677.38049 L 850.82815,654.69931 L 850.82815,632.01813 L 851.53159,631.90919 C 851.91848,631.84926 858.98805,631.12091 867.24175,630.29061 C 875.49544,629.46031 901.79003,626.7958 925.67417,624.36946 C 953.27392,621.56567 969.44974,619.99564 970.05991,620.06138 C 970.66644,620.12673 982.53334,618.99104 1002.2872,616.97716 C 1019.4842,615.22395 1033.6793,613.78951 1033.832,613.78951 C 1034.1779,613.78951 1034.4346,614.39628 1034.1315,614.49733 C 1033.9624,614.55371 1033.9101,623.94769 1033.9101,654.32329 C 1033.9101,690.35689 1033.9378,694.07547 1034.2053,694.07547 C 1034.3851,694.07547 1034.476,694.20378 1034.4381,694.40374 C 1034.3908,694.6527 1034.1722,694.73922 1033.5333,694.76185 C 1033.0699,694.77825 1018.6851,693.40369 1001.5669,691.70725 L 1001.5669,691.70725 z M 1032.7377,693.75858 C 1032.5572,693.7114 1032.2618,693.7114 1032.0812,693.75858 C 1031.9007,693.80576 1032.0484,693.84436 1032.4095,693.84436 C 1032.7706,693.84436 1032.9183,693.80576 1032.7377,693.75858 z M 1031.6009,692.24652 C 1031.5537,692.06597 1031.5151,692.2137 1031.5151,692.5748 C 1031.5151,692.9359 1031.5537,693.08362 1031.6009,692.90307 C 1031.648,692.72252 1031.648,692.42707 1031.6009,692.24652 z M 1031.7948,689.90172 C 1031.7532,689.56642 1031.7192,689.84076 1031.7192,690.51137 C 1031.7192,691.18198 1031.7532,691.45633 1031.7948,691.12102 C 1031.8365,690.78571 1031.8364,690.23703 1031.7948,689.90172 L 1031.7948,689.90172 z M 1031.9843,685.6748 C 1031.9458,685.18819 1031.9147,685.63419 1031.9152,686.6659 C 1031.9157,687.69761 1031.9472,688.09574 1031.9852,687.55064 C 1032.0233,687.00553 1032.0229,686.1614 1031.9843,685.6748 L 1031.9843,685.6748 z M 1032.1739,679.87455 C 1032.1386,679.07026 1032.1096,679.67839 1032.1093,681.22596 C 1032.1091,682.77353 1032.1379,683.43159 1032.1734,682.68831 C 1032.2089,681.94503 1032.2091,680.67884 1032.1739,679.87455 L 1032.1739,679.87455 z M 1032.3621,668.61094 C 1032.3303,667.19233 1032.3042,668.35301 1032.3042,671.19022 C 1032.3042,674.02743 1032.3303,675.1881 1032.3621,673.7695 C 1032.394,672.35089 1032.394,670.02954 1032.3621,668.61094 L 1032.3621,668.61094 z M 1032.7864,630.20311 L 1032.8807,645.585 L 1032.9264,630.15621 C 1032.9668,616.54644 1032.9391,614.72743 1032.6909,614.72743 C 1032.4421,614.72743 1032.4148,617.2968 1032.4552,636.90924 L 1032.501,659.09105 L 1032.5965,636.95613 L 1032.6921,614.82122 L 1032.7864,630.20311 z M 989.06844,619.38753 C 998.40042,618.42452 1005.8915,617.60883 1005.7152,617.57488 C 1005.2371,617.48281 971.62991,620.90155 970.97571,621.1088 C 970.24334,621.34082 968.92249,621.46648 989.06844,619.38753 z M 1009.5242,617.26836 C 1010.6075,617.13769 1011.1562,617.02694 1010.7435,617.02224 C 1010.3308,617.01755 1009.1069,617.12061 1008.0236,617.25127 C 1006.9403,617.38193 1006.3916,617.49268 1006.8043,617.49738 C 1007.2169,617.50208 1008.4409,617.39902 1009.5242,617.26835 L 1009.5242,617.26836 z M 1012.9502,616.84639 C 1012.7195,616.80186 1012.2974,616.80071 1012.0123,616.84383 C 1011.7272,616.88695 1011.9159,616.92338 1012.4318,616.92478 C 1012.9476,616.92619 1013.1809,616.89091 1012.9502,616.84639 L 1012.9502,616.84639 z M 1014.6359,616.65847 C 1014.4038,616.61376 1014.0239,616.61376 1013.7918,616.65847 C 1013.5596,616.70318 1013.7496,616.73976 1014.2138,616.73976 C 1014.6781,616.73976 1014.868,616.70318 1014.6359,616.65847 z M 1016.5117,616.47088 C 1016.2796,616.42617 1015.8997,616.42617 1015.6676,616.47088 C 1015.4355,616.51559 1015.6254,616.55218 1016.0897,616.55218 C 1016.5539,616.55218 1016.7439,616.51559 1016.5117,616.47088 z M 1018.3901,616.28364 C 1018.1594,616.23911 1017.7374,616.23796 1017.4522,616.28108 C 1017.1671,616.32419 1017.3559,616.36062 1017.8717,616.36203 C 1018.3876,616.36344 1018.6209,616.32816 1018.3902,616.28364 L 1018.3901,616.28364 z M 1020.0758,616.09572 C 1019.8437,616.051 1019.4638,616.051 1019.2317,616.09572 C 1018.9996,616.14043 1019.1895,616.17701 1019.6538,616.17701 C 1020.118,616.17701 1020.308,616.14043 1020.0758,616.09572 z M 1021.9517,615.90813 C 1021.7195,615.86342 1021.3397,615.86342 1021.1075,615.90813 C 1020.8754,615.95284 1021.0653,615.98943 1021.5296,615.98943 C 1021.9939,615.98942 1022.1838,615.95284 1021.9517,615.90813 z M 1023.8275,615.72055 C 1023.5954,615.67584 1023.2155,615.67584 1022.9834,615.72055 C 1022.7512,615.76526 1022.9412,615.80184 1023.4054,615.80184 C 1023.8697,615.80184 1024.0596,615.76526 1023.8275,615.72055 z M 1025.422,615.53604 C 1025.2414,615.48886 1024.946,615.48886 1024.7654,615.53604 C 1024.5849,615.58322 1024.7326,615.62183 1025.0937,615.62183 C 1025.4548,615.62183 1025.6025,615.58322 1025.422,615.53604 z M 1026.8171,615.34962 C 1026.6817,615.29544 1026.5199,615.3021 1026.4576,615.36443 C 1026.3953,615.42677 1026.5061,615.4711 1026.7038,615.46295 C 1026.9223,615.45395 1026.9668,615.4095 1026.8171,615.34962 z" id="path3372"/>
    </g>
    <g transform="matrix(0.933101, 1.36573, -0.825686, 0.56413, -10.1165, -1175.71)" id="g3374">
      <g id="g3376" style="fill: rgb(255, 230, 0); fill-opacity: 1;">
        <path sodipodi:nodetypes="cc" inkscape:connector-type="polyline" id="path3378" d="M 633.06985,655.038 L 1034.2759,614.1448" style="fill: rgb(255, 230, 0); fill-opacity: 1; fill-rule: evenodd; stroke: rgb(255, 230, 0); stroke-width: 0.777544px; stroke-linecap: butt; stroke-linejoin: miter; stroke-opacity: 1;"/>
        <path sodipodi:nodetypes="cc" inkscape:connector-type="polyline" id="path3380" d="M 633.06985,655.038 L 1034.468,694.48464" style="fill: rgb(255, 230, 0); fill-opacity: 1; fill-rule: evenodd; stroke: rgb(255, 230, 0); stroke-width: 0.777544px; stroke-linecap: butt; stroke-linejoin: miter; stroke-opacity: 1;"/>
        <path sodipodi:nodetypes="cc" inkscape:connector-type="polyline" id="path3382" d="M 1033.4128,614.05559 L 1033.5153,694.86148" style="fill: rgb(255, 230, 0); fill-opacity: 1; fill-rule: evenodd; stroke: rgb(255, 230, 0); stroke-width: 0.777544px; stroke-linecap: butt; stroke-linejoin: miter; stroke-opacity: 1;"/>
      </g>
      <path style="fill: rgb(255, 230, 0); fill-opacity: 1; fill-rule: evenodd; stroke: rgb(255, 230, 0); stroke-width: 0.777544; stroke-linecap: round; stroke-opacity: 1;" d="M 837.77817,674.26222 C 732.17417,663.81637 646.2807,655.11189 646.90381,654.91895 C 647.52692,654.72602 731.3274,646.10838 833.12707,635.76866 C 934.92674,625.42893 1021.3082,616.57122 1025.086,616.08486 L 1031.9546,615.20058 L 1031.9546,654.37876 C 1031.9546,675.92676 1031.4665,693.48895 1030.87,693.40584 C 1030.2736,693.32272 943.38223,684.70811 837.7782,674.26223 L 837.77817,674.26222 z" id="path3384"/>
      <path style="fill: rgb(255, 230, 0); fill-opacity: 1; fill-rule: evenodd; stroke: rgb(255, 230, 0); stroke-width: 0.777544; stroke-linecap: round; stroke-opacity: 1;" d="M 647.51482,655.90697 C 643.20585,655.47128 639.64009,655.07457 639.59091,655.02539 C 639.5046,654.93909 645.53394,654.30082 646.39217,654.3054 C 646.73497,654.30723 646.81423,654.41267 646.81423,654.86683 C 646.81423,655.56549 646.51259,655.49586 652.44175,656.16583 C 655.07262,656.46311 656.80308,656.70471 656.28722,656.70273 C 655.77137,656.70075 651.82378,656.34266 647.51482,655.90697 L 647.51482,655.90697 z" id="path3386"/>
      <path style="fill: rgb(255, 230, 0); fill-opacity: 1; fill-rule: evenodd; stroke: rgb(255, 230, 0); stroke-width: 0.777544; stroke-linecap: round; stroke-opacity: 1;" d="M 714.62585,663.4896 C 669.84955,659.07114 633.19329,655.45089 633.16749,655.4446 C 633.1417,655.43831 633.1206,655.22213 633.1206,654.9642 C 633.1206,654.57185 633.20941,654.49524 633.66425,654.49524 C 634.21716,654.49524 795.64047,638.08517 796.92834,637.89804 C 797.57226,637.80448 797.63178,637.83348 797.63178,638.24088 C 797.63178,638.63278 797.52537,638.69782 796.74076,638.78554 C 796.2507,638.84032 762.40116,642.29163 721.51957,646.4551 C 664.58423,652.25353 647.1894,654.08207 647.1894,654.26865 C 647.1894,654.43949 647.37149,654.48156 647.79905,654.40952 C 649.39905,654.13994 682.66492,650.69723 747.48769,644.09265 C 774.29316,641.36153 796.54145,639.08071 796.92834,639.02416 L 797.63178,638.92133 L 797.63178,654.7744 C 797.63178,669.73921 797.61338,670.62868 797.30351,670.64923 C 796.99086,670.66995 796.99086,670.67507 797.30351,670.75677 C 797.48406,670.80395 797.63178,671.00519 797.63178,671.20397 C 797.63178,671.50742 797.50393,671.562 796.83455,671.54428 C 796.39607,671.53267 759.40216,667.90807 714.62585,663.4896 L 714.62585,663.4896 z M 795.80284,670.50323 C 795.67387,670.45119 795.46284,670.45119 795.33388,670.50323 C 795.20491,670.55527 795.31043,670.59785 795.56836,670.59785 C 795.82629,670.59785 795.9318,670.55527 795.80284,670.50323 L 795.80284,670.50323 z M 794.01723,670.30989 C 793.83471,670.26233 793.58147,670.26545 793.45447,670.31684 C 793.32746,670.36822 793.4768,670.40714 793.78631,670.40331 C 794.09582,670.39949 794.19973,670.35745 794.01723,670.30989 z M 792.14139,670.1223 C 791.95887,670.07474 791.70563,670.07787 791.57863,670.12925 C 791.45162,670.18064 791.60096,670.21955 791.91047,670.21573 C 792.21998,670.21191 792.32389,670.16986 792.14139,670.1223 z M 790.26555,669.93472 C 790.08303,669.88716 789.82979,669.89029 789.70279,669.94167 C 789.57578,669.99305 789.72512,670.03197 790.03463,670.02814 C 790.34414,670.02432 790.44805,669.98228 790.26555,669.93472 z M 788.39327,669.74782 C 788.21272,669.70064 787.91728,669.70064 787.73673,669.74782 C 787.55618,669.79501 787.7039,669.83361 788.065,669.83361 C 788.4261,669.83361 788.57382,669.79501 788.39327,669.74782 z M 786.51743,669.56024 C 786.33688,669.51306 786.04144,669.51306 785.86089,669.56024 C 785.68034,669.60742 785.82806,669.64603 786.18916,669.64603 C 786.55026,669.64602 786.69798,669.60742 786.51743,669.56024 z M 784.64159,669.37265 C 784.46104,669.32547 784.1656,669.32547 783.98505,669.37265 C 783.8045,669.41984 783.95222,669.45844 784.31332,669.45844 C 784.67442,669.45844 784.82214,669.41984 784.64159,669.37265 z M 782.76575,669.18507 C 782.5852,669.13789 782.28976,669.13789 782.10921,669.18507 C 781.92866,669.23225 782.07638,669.27086 782.43748,669.27086 C 782.79858,669.27086 782.9463,669.23225 782.76575,669.18507 z M 780.79392,668.99413 C 780.56059,668.94925 780.22294,668.95096 780.04359,668.99791 C 779.86426,669.04486 780.05516,669.08157 780.46785,669.07949 C 780.88053,669.0774 781.02728,669.03899 780.79392,668.99412 L 780.79392,668.99413 z M 778.91808,668.80654 C 778.68475,668.76167 778.3471,668.76337 778.16775,668.81032 C 777.98842,668.85727 778.17932,668.89399 778.59201,668.8919 C 779.00469,668.88982 779.15144,668.85141 778.91808,668.80654 L 778.91808,668.80654 z M 777.04224,668.61896 C 776.80891,668.57409 776.47126,668.57579 776.29191,668.62274 C 776.11258,668.66969 776.30348,668.7064 776.71616,668.70432 C 777.12885,668.70224 777.2756,668.66382 777.04224,668.61895 L 777.04224,668.61896 z M 775.1664,668.43137 C 774.93307,668.3865 774.59542,668.38821 774.41607,668.43516 C 774.23674,668.4821 774.42764,668.51882 774.84032,668.51674 C 775.25301,668.51465 775.39976,668.47624 775.1664,668.43137 L 775.1664,668.43137 z M 773.29056,668.24379 C 773.05723,668.19892 772.71957,668.20062 772.54023,668.24757 C 772.3609,668.29452 772.5518,668.33123 772.96448,668.32915 C 773.37717,668.32707 773.52392,668.28865 773.29056,668.24379 L 773.29056,668.24379 z M 771.41692,668.05649 C 771.18478,668.01178 770.80492,668.01178 770.57279,668.05649 C 770.34065,668.1012 770.53058,668.13778 770.99485,668.13778 C 771.45912,668.13778 771.64905,668.1012 771.41692,668.05649 L 771.41692,668.05649 z M 769.54108,667.86891 C 769.30894,667.82419 768.92908,667.82419 768.69695,667.86891 C 768.46481,667.91361 768.65474,667.9502 769.11901,667.9502 C 769.58328,667.9502 769.77321,667.91362 769.54108,667.86891 L 769.54108,667.86891 z M 767.66524,667.68132 C 767.4331,667.63661 767.05324,667.63661 766.82111,667.68132 C 766.58897,667.72603 766.7789,667.76261 767.24317,667.76261 C 767.70744,667.76262 767.89737,667.72603 767.66524,667.68132 L 767.66524,667.68132 z M 765.7894,667.49374 C 765.55726,667.44903 765.1774,667.44903 764.94527,667.49374 C 764.71313,667.53845 764.90306,667.57503 765.36733,667.57503 C 765.8316,667.57503 766.02153,667.53845 765.7894,667.49374 L 765.7894,667.49374 z M 763.91356,667.30616 C 763.68142,667.26144 763.30156,667.26144 763.06943,667.30615 C 762.83729,667.35086 763.02722,667.38745 763.49149,667.38745 C 763.95576,667.38745 764.14569,667.35086 763.91356,667.30615 L 763.91356,667.30616 z M 762.04029,667.11891 C 761.80958,667.07438 761.38751,667.07323 761.10237,667.11635 C 760.81724,667.15946 761.006,667.19589 761.52186,667.1973 C 762.03772,667.19871 762.27101,667.16343 762.04029,667.11891 L 762.04029,667.11891 z M 760.16445,666.93133 C 759.93374,666.8868 759.51167,666.88564 759.22652,666.92876 C 758.9414,666.97188 759.13016,667.00831 759.64602,667.00972 C 760.16188,667.01113 760.39517,666.97585 760.16445,666.93132 L 760.16445,666.93133 z M 758.2886,666.74374 C 758.0579,666.69921 757.63583,666.69806 757.35068,666.74118 C 757.06556,666.7843 757.25432,666.82073 757.77018,666.82213 C 758.28603,666.82354 758.51933,666.78826 758.2886,666.74374 L 758.2886,666.74374 z M 756.41276,666.55616 C 756.18206,666.51163 755.75999,666.51048 755.47484,666.55359 C 755.18972,666.59671 755.37848,666.63314 755.89434,666.63455 C 756.41019,666.63596 756.64349,666.60068 756.41276,666.55616 L 756.41276,666.55616 z M 754.53692,666.36857 C 754.30621,666.32405 753.88415,666.32289 753.599,666.36601 C 753.31388,666.40913 753.50264,666.44556 754.0185,666.44697 C 754.53435,666.44837 754.76765,666.4131 754.53692,666.36857 L 754.53692,666.36857 z M 729.16362,663.8602 C 716.00929,662.53452 694.44181,660.34612 681.2359,658.9971 C 668.02998,657.64807 657.02297,656.52644 656.77586,656.50459 C 656.52875,656.48275 656.2932,656.55953 656.25241,656.67523 C 656.20271,656.8162 656.96959,656.96219 658.57754,657.11784 C 659.89715,657.24557 681.27811,659.35628 706.09078,661.8083 C 730.90346,664.26033 751.6268,666.26743 752.14266,666.26853 C 752.65851,666.26963 742.31795,665.18588 729.16362,663.8602 z M 639.68604,655.05799 C 639.68604,654.95482 639.28508,654.87634 638.79501,654.88359 C 638.1246,654.89351 637.99688,654.93669 638.27916,655.05799 C 638.80353,655.28332 639.68604,655.28332 639.68604,655.05799 z" id="path3388"/>
      <path style="fill: rgb(255, 230, 0); fill-opacity: 1; fill-rule: evenodd; stroke: rgb(255, 230, 0); stroke-width: 0.777544; stroke-linecap: round; stroke-opacity: 1;" d="M 884.45726,680.17313 C 821.50996,673.95266 798.92712,671.78219 797.88724,671.85276 C 796.85984,671.92248 783.83548,670.70755 749.60152,667.34859 C 723.81816,664.81878 702.65165,662.74894 702.56483,662.74894 C 702.47801,662.74894 702.40697,659.22261 702.40697,654.91265 L 702.40697,647.07636 L 749.97633,642.24171 C 783.54409,638.8301 797.6151,637.46466 797.78149,637.60275 C 797.94793,637.74089 823.18088,635.23341 883.57973,629.0767 C 930.63908,624.27973 969.3553,620.35495 969.61577,620.35495 C 969.95932,620.35495 970.08937,620.45481 970.08937,620.71862 C 970.08937,621.00449 969.9188,621.10539 969.29214,621.19022 C 968.85366,621.24958 936.12259,624.5918 896.55643,628.61737 C 856.99027,632.64294 824.2381,636.00882 823.77383,636.09711 C 823.30956,636.1854 823.11643,636.26707 823.34464,636.27861 C 823.67717,636.29543 967.72889,621.66237 969.57351,621.42439 L 970.08937,621.35785 L 970.08937,654.99669 C 970.08937,681.79512 970.04168,688.6308 969.85489,688.61225 C 969.72592,688.59944 931.29699,684.80184 884.45726,680.17313 z M 805.23819,671.43725 C 805.10278,671.38306 804.94098,671.38972 804.87865,671.45205 C 804.81632,671.51438 804.92711,671.55872 805.12485,671.55058 C 805.34338,671.54158 805.38783,671.49713 805.23819,671.43725 z M 803.36235,671.24966 C 803.22694,671.19547 803.06514,671.20214 803.00281,671.26447 C 802.94048,671.3268 803.05127,671.37114 803.24901,671.36299 C 803.46754,671.35399 803.51199,671.30954 803.36235,671.24966 z M 801.48651,671.06208 C 801.3511,671.00789 801.1893,671.01455 801.12697,671.07689 C 801.06464,671.13922 801.17543,671.18355 801.37317,671.17541 C 801.5917,671.16641 801.63615,671.12196 801.48651,671.06208 z M 799.62239,670.8784 C 799.49343,670.82636 799.28239,670.82636 799.15343,670.8784 C 799.02447,670.93044 799.12998,670.97302 799.38791,670.97302 C 799.64584,670.97302 799.75135,670.93044 799.62239,670.8784 L 799.62239,670.8784 z M 810.80871,637.61374 C 820.32467,636.64563 823.05696,636.3119 821.60099,636.29555 C 820.46672,636.28282 798.32407,638.63371 798.16861,638.78337 C 798.04801,638.89948 798.31595,638.92183 798.91895,638.84595 C 799.43481,638.78104 804.7852,638.22655 810.80872,637.61374 L 810.80871,637.61374 z" id="path3390"/>
      <path style="fill: rgb(255, 230, 0); fill-opacity: 1; fill-rule: evenodd; stroke: rgb(255, 230, 0); stroke-width: 0.777544; stroke-linecap: round; stroke-opacity: 1;" d="M 1001.5669,691.70725 C 977.96496,689.36827 970.40939,688.67713 970.30409,688.84751 C 970.19883,689.01784 961.09799,688.17579 932.6785,685.36625 C 876.81277,679.84337 851.72155,677.38301 851.25021,677.38168 L 850.82815,677.38049 L 850.82815,654.69931 L 850.82815,632.01813 L 851.53159,631.90919 C 851.91848,631.84926 858.98805,631.12091 867.24175,630.29061 C 875.49544,629.46031 901.79003,626.7958 925.67417,624.36946 C 953.27392,621.56567 969.44974,619.99564 970.05991,620.06138 C 970.66644,620.12673 982.53334,618.99104 1002.2872,616.97716 C 1019.4842,615.22395 1033.6793,613.78951 1033.832,613.78951 C 1034.1779,613.78951 1034.4346,614.39628 1034.1315,614.49733 C 1033.9624,614.55371 1033.9101,623.94769 1033.9101,654.32329 C 1033.9101,690.35689 1033.9378,694.07547 1034.2053,694.07547 C 1034.3851,694.07547 1034.476,694.20378 1034.4381,694.40374 C 1034.3908,694.6527 1034.1722,694.73922 1033.5333,694.76185 C 1033.0699,694.77825 1018.6851,693.40369 1001.5669,691.70725 L 1001.5669,691.70725 z M 1032.7377,693.75858 C 1032.5572,693.7114 1032.2618,693.7114 1032.0812,693.75858 C 1031.9007,693.80576 1032.0484,693.84436 1032.4095,693.84436 C 1032.7706,693.84436 1032.9183,693.80576 1032.7377,693.75858 z M 1031.6009,692.24652 C 1031.5537,692.06597 1031.5151,692.2137 1031.5151,692.5748 C 1031.5151,692.9359 1031.5537,693.08362 1031.6009,692.90307 C 1031.648,692.72252 1031.648,692.42707 1031.6009,692.24652 z M 1031.7948,689.90172 C 1031.7532,689.56642 1031.7192,689.84076 1031.7192,690.51137 C 1031.7192,691.18198 1031.7532,691.45633 1031.7948,691.12102 C 1031.8365,690.78571 1031.8364,690.23703 1031.7948,689.90172 L 1031.7948,689.90172 z M 1031.9843,685.6748 C 1031.9458,685.18819 1031.9147,685.63419 1031.9152,686.6659 C 1031.9157,687.69761 1031.9472,688.09574 1031.9852,687.55064 C 1032.0233,687.00553 1032.0229,686.1614 1031.9843,685.6748 L 1031.9843,685.6748 z M 1032.1739,679.87455 C 1032.1386,679.07026 1032.1096,679.67839 1032.1093,681.22596 C 1032.1091,682.77353 1032.1379,683.43159 1032.1734,682.68831 C 1032.2089,681.94503 1032.2091,680.67884 1032.1739,679.87455 L 1032.1739,679.87455 z M 1032.3621,668.61094 C 1032.3303,667.19233 1032.3042,668.35301 1032.3042,671.19022 C 1032.3042,674.02743 1032.3303,675.1881 1032.3621,673.7695 C 1032.394,672.35089 1032.394,670.02954 1032.3621,668.61094 L 1032.3621,668.61094 z M 1032.7864,630.20311 L 1032.8807,645.585 L 1032.9264,630.15621 C 1032.9668,616.54644 1032.9391,614.72743 1032.6909,614.72743 C 1032.4421,614.72743 1032.4148,617.2968 1032.4552,636.90924 L 1032.501,659.09105 L 1032.5965,636.95613 L 1032.6921,614.82122 L 1032.7864,630.20311 z M 989.06844,619.38753 C 998.40042,618.42452 1005.8915,617.60883 1005.7152,617.57488 C 1005.2371,617.48281 971.62991,620.90155 970.97571,621.1088 C 970.24334,621.34082 968.92249,621.46648 989.06844,619.38753 z M 1009.5242,617.26836 C 1010.6075,617.13769 1011.1562,617.02694 1010.7435,617.02224 C 1010.3308,617.01755 1009.1069,617.12061 1008.0236,617.25127 C 1006.9403,617.38193 1006.3916,617.49268 1006.8043,617.49738 C 1007.2169,617.50208 1008.4409,617.39902 1009.5242,617.26835 L 1009.5242,617.26836 z M 1012.9502,616.84639 C 1012.7195,616.80186 1012.2974,616.80071 1012.0123,616.84383 C 1011.7272,616.88695 1011.9159,616.92338 1012.4318,616.92478 C 1012.9476,616.92619 1013.1809,616.89091 1012.9502,616.84639 L 1012.9502,616.84639 z M 1014.6359,616.65847 C 1014.4038,616.61376 1014.0239,616.61376 1013.7918,616.65847 C 1013.5596,616.70318 1013.7496,616.73976 1014.2138,616.73976 C 1014.6781,616.73976 1014.868,616.70318 1014.6359,616.65847 z M 1016.5117,616.47088 C 1016.2796,616.42617 1015.8997,616.42617 1015.6676,616.47088 C 1015.4355,616.51559 1015.6254,616.55218 1016.0897,616.55218 C 1016.5539,616.55218 1016.7439,616.51559 1016.5117,616.47088 z M 1018.3901,616.28364 C 1018.1594,616.23911 1017.7374,616.23796 1017.4522,616.28108 C 1017.1671,616.32419 1017.3559,616.36062 1017.8717,616.36203 C 1018.3876,616.36344 1018.6209,616.32816 1018.3902,616.28364 L 1018.3901,616.28364 z M 1020.0758,616.09572 C 1019.8437,616.051 1019.4638,616.051 1019.2317,616.09572 C 1018.9996,616.14043 1019.1895,616.17701 1019.6538,616.17701 C 1020.118,616.17701 1020.308,616.14043 1020.0758,616.09572 z M 1021.9517,615.90813 C 1021.7195,615.86342 1021.3397,615.86342 1021.1075,615.90813 C 1020.8754,615.95284 1021.0653,615.98943 1021.5296,615.98943 C 1021.9939,615.98942 1022.1838,615.95284 1021.9517,615.90813 z M 1023.8275,615.72055 C 1023.5954,615.67584 1023.2155,615.67584 1022.9834,615.72055 C 1022.7512,615.76526 1022.9412,615.80184 1023.4054,615.80184 C 1023.8697,615.80184 1024.0596,615.76526 1023.8275,615.72055 z M 1025.422,615.53604 C 1025.2414,615.48886 1024.946,615.48886 1024.7654,615.53604 C 1024.5849,615.58322 1024.7326,615.62183 1025.0937,615.62183 C 1025.4548,615.62183 1025.6025,615.58322 1025.422,615.53604 z M 1026.8171,615.34962 C 1026.6817,615.29544 1026.5199,615.3021 1026.4576,615.36443 C 1026.3953,615.42677 1026.5061,615.4711 1026.7038,615.46295 C 1026.9223,615.45395 1026.9668,615.4095 1026.8171,615.34962 z" id="path3392"/>
    </g>
    <circle style="fill: rgb(255, 0, 0); fill-opacity: 1;" id="outer circle" transform="matrix(1.19048, 0, 0, 1.19048, -399.5, -157.527)" r="60" cy="200" cx="400" sodipodi:cx="400" sodipodi:cy="200" sodipodi:rx="60" sodipodi:ry="60"/>
    <circle inkscape:transform-center-y="233.1687" inkscape:transform-center-x="-82.737279" style="fill: rgb(255, 230, 0);" id="inner circle" transform="matrix(1.14286, 0, 0, 1.14286, -380.654, -149.055)" r="50" cy="200" cx="400" sodipodi:cx="400" sodipodi:cy="200" sodipodi:rx="50" sodipodi:ry="50"/>
  </g>
</svg>