<?xml version="1.0" encoding="UTF-8" standalone="no"?>
<!-- Created with Inkscape (http://www.inkscape.org/) -->
<svg xmlns:dc="http://purl.org/dc/elements/1.1/" xmlns:cc="http://creativecommons.org/ns#" xmlns:rdf="http://www.w3.org/1999/02/22-rdf-syntax-ns#" xmlns:svg="http://www.w3.org/2000/svg" xmlns="http://www.w3.org/2000/svg" xmlns:sodipodi="http://sodipodi.sourceforge.net/DTD/sodipodi-0.dtd" xmlns:inkscape="http://www.inkscape.org/namespaces/inkscape" width="463.28131" height="611.375" id="svg2" sodipodi:version="0.32" inkscape:version="0.46" version="1.0" sodipodi:docname="Bitola-coat-of-arms.svg" inkscape:output_extension="org.inkscape.output.svg.inkscape">
  <defs id="defs4">
    <inkscape:perspective sodipodi:type="inkscape:persp3d" inkscape:vp_x="0 : 526.18109 : 1" inkscape:vp_y="0 : 1000 : 0" inkscape:vp_z="744.09448 : 526.18109 : 1" inkscape:persp3d-origin="372.04724 : 350.78739 : 1" id="perspective10"/>
    <inkscape:perspective id="perspective2390" inkscape:persp3d-origin="372.04724 : 350.78739 : 1" inkscape:vp_z="744.09448 : 526.18109 : 1" inkscape:vp_y="0 : 1000 : 0" inkscape:vp_x="0 : 526.18109 : 1" sodipodi:type="inkscape:persp3d"/>
  </defs>
  <sodipodi:namedview id="base" pagecolor="#ffffff" bordercolor="#666666" borderopacity="1.0" gridtolerance="10000" guidetolerance="10" objecttolerance="10" inkscape:pageopacity="0.0" inkscape:pageshadow="2" inkscape:zoom="1" inkscape:cx="161.12657" inkscape:cy="306.0685" inkscape:document-units="px" inkscape:current-layer="layer1" showgrid="false" inkscape:window-width="1280" inkscape:window-height="949" inkscape:window-x="0" inkscape:window-y="26">
    <inkscape:grid type="xygrid" id="grid3170" visible="true" enabled="true"/>
  </sodipodi:namedview>
  <metadata id="metadata7">
    <rdf:RDF>
      <cc:Work rdf:about="">
        <dc:format>image/svg+xml</dc:format>
        <dc:type rdf:resource="http://purl.org/dc/dcmitype/StillImage"/>
      </cc:Work>
    </rdf:RDF>
  </metadata>
  <g inkscape:label="Layer 1" inkscape:groupmode="layer" id="layer1" transform="translate(-868.562, -248.219)">
    <path style="fill: rgb(255, 255, 255); fill-opacity: 1; stroke: rgb(255, 255, 0); stroke-width: 4; stroke-miterlimit: 4; stroke-dasharray: none; stroke-opacity: 1;" d="M 870.5625,250.21875 L 870.5625,628.0625 C 870.63014,754.76796 973.49756,857.59375 1100.2188,857.59375 C 1226.9399,857.59375 1329.7761,754.76798 1329.8438,628.0625 L 1329.8438,250.21875 L 870.5625,250.21875 z" id="rect2396" sodipodi:nodetypes="ccsccc"/>
    <path sodipodi:nodetypes="ccsccc" id="path3175" d="M 946.17992,350.21875 L 946.17992,603.6439 C 946.22529,688.62704 1015.2199,757.59375 1100.2137,757.59375 C 1185.2073,757.59375 1254.181,688.62705 1254.2264,603.6439 L 1254.2264,350.21875 L 946.17992,350.21875 z" style="fill: rgb(204, 51, 51); fill-opacity: 1; stroke: rgb(0, 93, 53); stroke-width: 0pt; stroke-miterlimit: 4; stroke-dasharray: none; stroke-opacity: 1;"/>
    <path style="fill: rgb(255, 255, 0); fill-opacity: 1; stroke: rgb(0, 93, 53); stroke-width: 0pt; stroke-miterlimit: 4; stroke-dasharray: none; stroke-opacity: 1;" d="M 997.71875,351.34375 L 947.1875,488.21875 L 1048.2188,488.21875 L 997.71875,351.34375 z M 1100.4688,351.34375 L 1049.9375,488.21875 L 1150.9688,488.21875 L 1100.4688,351.34375 z M 1203.25,351.34375 L 1152.7188,488.21875 L 1253.75,488.21875 L 1203.25,351.34375 z M 997.71875,488.375 L 947.5625,624.21875 C 947.60871,624.5631 947.67026,624.90637 947.71875,625.25 L 1048.2188,625.25 L 997.71875,488.375 z M 1100.4688,488.375 L 1049.9375,625.25 L 1150.9688,625.25 L 1100.4688,488.375 z M 1203.25,488.375 L 1152.7188,625.25 L 1252.6875,625.25 C 1252.7857,624.554 1252.8799,623.85519 1252.9688,623.15625 L 1203.25,488.375 z M 997.71875,625.4375 L 973.5,691.09375 C 990.46271,715.59563 1014.3431,734.94455 1042.3125,746.3125 L 997.71875,625.4375 z M 1100.4688,625.4375 L 1054.25,750.59375 C 1068.7673,755.13104 1084.2129,757.59375 1100.2188,757.59375 C 1116.3741,757.59375 1131.9601,755.08783 1146.5938,750.46875 L 1100.4688,625.4375 z M 1203.25,625.4375 L 1158.7188,746.0625 C 1186.6279,734.57972 1210.4227,715.14092 1227.2812,690.5625 L 1203.25,625.4375 z" id="rect3185"/>
    <path style="fill: rgb(0, 102, 204); fill-opacity: 1; stroke: rgb(0, 93, 53); stroke-width: 0pt; stroke-miterlimit: 4; stroke-dasharray: none; stroke-opacity: 1;" d="M 870.5625,250.21875 L 870.5625,352.375 L 1329.8438,352.375 L 1329.8438,250.21875 L 870.5625,250.21875 z" id="path3179"/>
    <path style="fill: rgb(255, 255, 0); fill-opacity: 1; stroke: rgb(0, 93, 53); stroke-width: 0pt; stroke-miterlimit: 4; stroke-dasharray: none; stroke-opacity: 1;" d="M 881.5,265.375 L 881.5,320.125 L 870.5625,320.125 L 870.5625,337.375 L 881.5,337.375 L 886,337.375 L 897.75,337.375 L 897.75,292.375 L 897.75,281.875 L 950.25,281.875 L 950.25,292.375 L 914.75,292.375 L 914.75,337.375 L 987,337.375 L 988.5,337.375 L 1003.25,337.375 L 1003.25,292.375 L 1003.25,281.875 L 1055.75,281.875 L 1055.75,292.375 L 1020.25,292.375 L 1020.25,337.375 L 1089.5,337.375 L 1094,337.375 L 1105.75,337.375 L 1105.75,292.375 L 1105.75,281.875 L 1158.25,281.875 L 1158.25,292.375 L 1122.75,292.375 L 1122.75,337.375 L 1193.5,337.375 L 1196.5,337.375 L 1209.75,337.375 L 1209.75,292.375 L 1209.75,281.875 L 1262.25,281.875 L 1262.25,292.375 L 1226.75,292.375 L 1226.75,337.375 L 1296,337.375 L 1300.5,337.375 L 1312.25,337.375 L 1312.25,292.375 L 1312.25,281.875 L 1329.8438,281.875 L 1329.8438,265.375 L 1296,265.375 L 1296,320.125 L 1243.5,320.125 L 1243.5,309.875 L 1278.5,309.875 L 1278.5,265.375 L 1193.5,265.375 L 1193.5,320.125 L 1139.5,320.125 L 1139.5,309.875 L 1174.5,309.875 L 1174.5,265.375 L 1089.5,265.375 L 1089.5,320.125 L 1037,320.125 L 1037,309.875 L 1072,309.875 L 1072,265.375 L 987,265.375 L 987,320.125 L 931.5,320.125 L 931.5,309.875 L 966.5,309.875 L 966.5,265.375 L 881.5,265.375 z M 1329.25,292.375 L 1329.25,337.375 L 1329.8438,337.375 L 1329.8438,292.375 L 1329.25,292.375 z" id="rect3211"/>
  </g>
</svg>